<?xml version="1.0" encoding="utf-8"?>
<!-- Generator: Adobe Illustrator 22.1.0, SVG Export Plug-In . SVG Version: 6.00 Build 0)  -->
<svg version="1.1" id="Capa_1" xmlns="http://www.w3.org/2000/svg" xmlns:xlink="http://www.w3.org/1999/xlink" x="0px" y="0px"
	 viewBox="0 0 985.4 96.9" style="enable-background:new 0 0 985.4 96.9;" xml:space="preserve">
<style type="text/css">
	.st0{fill:#FFFFFF;}
	.st1{opacity:0.2;}
</style>
<title>Recurso 12</title>
<g id="Capa_2_1_">
	<g id="Layer_1">
		<path class="st0" d="M194,57.7c3.5,2.8,6,6.7,6.9,11.1H192c-0.9-2.2-2.3-4.1-4.3-5.4c-2.1-1.4-4.5-2.1-7-2
			c-4.4-0.1-8.4,2.5-10.3,6.5c-2,4.7-2,9.9,0,14.6c1.8,4,5.9,6.6,10.3,6.5c2.5,0.1,4.9-0.6,7-2c1.9-1.3,3.4-3.2,4.3-5.4h8.9
			c-0.9,4.4-3.4,8.3-6.9,11.1c-3.5,2.7-7.8,4.1-13.1,4.1c-3.8,0.1-7.5-0.9-10.7-2.7c-3.1-1.8-5.6-4.5-7.2-7.7
			c-1.7-3.5-2.6-7.3-2.6-11.2c-0.1-3.9,0.8-7.8,2.5-11.3c1.6-3.2,4.1-5.8,7.2-7.7c3.3-1.9,7-2.8,10.8-2.7
			C186.1,53.7,190.5,55,194,57.7z"/>
		<path class="st0" d="M220.5,60.8v11h15v6.5h-15v11.4h16.8v6.8H212V54.1h25.3v6.7H220.5z"/>
		<path class="st0" d="M284.2,96.4h-8.5l-19-28.8v28.8h-8.5V54.1h8.5l19,29v-29h8.5V96.4z"/>
		<path class="st0" d="M325.5,54.1v6.7h-11.7v35.6h-8.5V60.8h-11.6v-6.7H325.5z"/>
		<path class="st0" d="M357,96.4l-9.9-16.5h-3.7v16.5H335V54.1h16.1c4.9,0,8.7,1.2,11.3,3.6c2.6,2.5,4,5.9,3.9,9.5
			c0.1,2.9-0.9,5.7-2.7,8c-2,2.3-4.7,3.8-7.7,4.4l10.6,16.9L357,96.4z M343.4,74.1h7c4.8,0,7.3-2.1,7.3-6.4c0.1-1.8-0.6-3.5-1.8-4.8
			c-1.2-1.1-3-1.7-5.5-1.7h-7L343.4,74.1z"/>
		<path class="st0" d="M407.4,56.2c3.2,1.8,5.8,4.5,7.6,7.8c3.7,7,3.7,15.4,0,22.4c-1.8,3.2-4.4,5.9-7.6,7.7
			c-6.7,3.7-14.8,3.7-21.5,0c-3.2-1.8-5.8-4.5-7.6-7.7c-3.7-7-3.7-15.4,0-22.4c1.8-3.2,4.4-5.9,7.6-7.8
			C392.6,52.6,400.7,52.6,407.4,56.2L407.4,56.2z M390,63c-1.9,1.1-3.4,2.8-4.4,4.8c-2.1,4.7-2.1,10,0,14.7c1,2,2.5,3.7,4.4,4.8
			c4.1,2.2,9,2.2,13.1,0c1.9-1.1,3.4-2.8,4.4-4.8c2.1-4.7,2.1-10,0-14.7c-1-2-2.5-3.7-4.4-4.8C399.1,60.8,394.1,60.8,390,63z"/>
		<path class="st0" d="M479.1,57.7c3.5,2.8,6,6.7,6.9,11.1h-8.9c-0.9-2.2-2.3-4.1-4.3-5.4c-2.1-1.4-4.5-2.1-7-2
			c-4.4-0.1-8.4,2.5-10.3,6.5c-2,4.7-2,9.9,0,14.6c1.8,4,5.9,6.6,10.3,6.5c2.5,0.1,4.9-0.6,7-2c1.9-1.3,3.4-3.2,4.3-5.4h8.9
			c-0.9,4.4-3.4,8.3-6.9,11.1c-3.5,2.7-7.9,4.1-13.2,4.1c-3.8,0.1-7.5-0.9-10.7-2.7c-3.1-1.8-5.6-4.5-7.2-7.7
			c-1.7-3.5-2.6-7.3-2.5-11.2c-0.1-3.9,0.8-7.8,2.5-11.3c1.6-3.2,4.1-5.8,7.2-7.7c3.3-1.9,7-2.8,10.7-2.7
			C471.2,53.6,475.6,55,479.1,57.7z"/>
		<path class="st0" d="M527.8,56.2c3.2,1.8,5.8,4.5,7.6,7.8c3.7,7,3.7,15.4,0,22.4c-1.8,3.2-4.4,5.9-7.6,7.7
			c-6.7,3.7-14.8,3.7-21.5,0c-3.2-1.8-5.8-4.5-7.6-7.7c-3.7-7-3.7-15.4,0-22.4c1.8-3.2,4.4-5.9,7.6-7.7
			C512.9,52.6,521.1,52.6,527.8,56.2L527.8,56.2z M510.5,63c-1.9,1.1-3.4,2.8-4.4,4.8c-2.1,4.7-2.1,10,0,14.7c1,2,2.5,3.7,4.4,4.8
			c4.1,2.2,9,2.2,13.1,0c1.9-1.1,3.4-2.8,4.4-4.8c2.1-4.7,2.1-10,0-14.7c-1-2-2.5-3.7-4.4-4.8C519.5,60.8,514.5,60.8,510.5,63
			L510.5,63z"/>
		<path class="st0" d="M595,54.6v41.9h-8.4V67.2l-10.8,29.2h-7.3l-10.7-29.1v29.1h-8.5V54.6h10.3l12.7,31.5l12.5-31.5H595z"/>
		<path class="st0" d="M615.9,60.8v11h15v6.5h-15v11.4h16.8v6.8h-25.3V54.1h25.3v6.7H615.9z"/>
		<path class="st0" d="M665.8,96.4l-9.9-16.5h-3.7v16.5h-8.5V54.1h16.1c4.9,0,8.7,1.2,11.3,3.6c2.6,2.5,4,5.9,3.9,9.5
			c0.1,2.9-0.9,5.7-2.7,8c-2,2.3-4.7,3.8-7.7,4.3l10.6,16.9L665.8,96.4z M652.2,74.1h7c4.8,0,7.3-2.1,7.3-6.4
			c0.1-1.8-0.5-3.5-1.8-4.8c-1.2-1.1-3-1.7-5.5-1.7h-7V74.1z"/>
		<path class="st0" d="M717.8,57.7c3.5,2.8,6,6.7,6.9,11.1h-8.9c-0.9-2.2-2.3-4.1-4.3-5.4c-2.1-1.4-4.5-2.1-7-2
			c-4.4-0.1-8.4,2.5-10.3,6.5c-2,4.7-2,9.9,0,14.6c1.8,4,5.9,6.6,10.3,6.5c2.5,0.1,4.9-0.6,7-2c1.9-1.3,3.4-3.2,4.3-5.4h8.9
			c-0.9,4.4-3.4,8.3-6.9,11.1c-3.5,2.7-7.9,4.1-13.1,4.1c-3.8,0.1-7.5-0.9-10.7-2.7c-3.1-1.8-5.6-4.5-7.2-7.7
			c-1.7-3.5-2.6-7.3-2.5-11.2c-0.1-3.9,0.8-7.8,2.5-11.2c1.6-3.2,4.1-5.8,7.2-7.7c3.3-1.9,7-2.8,10.7-2.7
			C710,53.6,714.3,55,717.8,57.7z"/>
		<path class="st0" d="M744.3,54.1v42.4h-8.5V54.1H744.3z"/>
		<path class="st0" d="M782.6,87.9h-17l-3,8.5h-8.9l15.6-41.9h9.7l15.5,41.9h-8.9L782.6,87.9z M780.3,81.5l-6.3-17.9l-6.3,17.9
			H780.3z"/>
		<path class="st0" d="M812.3,90h14.2v6.5h-22.7V54.1h8.5L812.3,90z"/>
		<g class="st1">
			<path class="st0" d="M60.4,6.2c5.1,4,8.6,9.7,10,16H57.5c-1.2-3.2-3.4-5.9-6.2-7.8c-3-2-6.5-3-10.1-2.9
				c-6.4-0.1-12.2,3.6-14.8,9.4c-1.5,3.3-2.2,6.9-2.2,10.6c-0.1,3.6,0.7,7.2,2.2,10.5c2.6,5.8,8.5,9.5,14.8,9.4
				c3.6,0.1,7.1-0.9,10.1-2.9c2.8-1.9,5-4.6,6.2-7.8h12.8c-1.4,6.3-4.9,12-10,16c-5,3.9-11.4,5.9-19,5.9c-5.4,0.1-10.7-1.2-15.4-3.9
				c-4.5-2.6-8.1-6.4-10.4-11c-2.5-5-3.8-10.5-3.7-16.1c-0.1-5.6,1.2-11.2,3.7-16.2c2.3-4.6,5.9-8.4,10.3-11
				c4.7-2.7,10.1-4.1,15.5-3.9C49,0.3,55.3,2.2,60.4,6.2z"/>
			<path class="st0" d="M98.6,10.6v15.9h21.7v9.4H98.6v16.5h24.2V62H86.4V0.9h36.4v9.7H98.6z"/>
			<path class="st0" d="M190.6,62h-12.2L151,20.4V62h-12.2V0.9h12.2l27.4,41.9V0.9h12.2L190.6,62z"/>
			<path class="st0" d="M250.2,0.9v9.7h-16.9V62h-12.2V10.6h-16.8V0.9H250.2z"/>
			<path class="st0" d="M295.8,62l-14.3-23.8h-5.4V62h-12.2V0.9h23.3c7.1,0,12.5,1.7,16.2,5.2c3.7,3.5,5.6,8,5.6,13.7
				c0.1,4.2-1.2,8.3-3.9,11.6c-2.6,3.1-6.3,5.2-11.1,6.2L309.3,62H295.8z M276.1,29.8h10c7,0,10.5-3.1,10.5-9.3
				c0.1-2.6-0.8-5.1-2.5-6.9c-1.7-1.6-4.4-2.5-7.9-2.5h-10L276.1,29.8z"/>
			<path class="st0" d="M368.4,4c4.6,2.6,8.4,6.5,11,11.1c2.7,4.9,4.1,10.5,4,16.2c0.1,5.7-1.3,11.2-4,16.2
				c-2.6,4.7-6.4,8.5-11,11.2c-9.7,5.3-21.4,5.3-31.1,0c-4.6-2.6-8.4-6.5-11-11.2c-2.7-5-4.1-10.5-4-16.2c-0.1-5.6,1.3-11.2,4-16.2
				c2.6-4.7,6.4-8.5,11-11.1C347-1.3,358.7-1.3,368.4,4z M343.4,13.7c-2.8,1.7-5,4.1-6.4,7c-1.6,3.3-2.4,6.9-2.3,10.6
				c-0.1,3.7,0.7,7.3,2.3,10.6c1.4,2.9,3.6,5.3,6.4,7c5.9,3.2,13,3.2,18.9,0c2.8-1.7,5-4.1,6.4-7c1.6-3.3,2.4-6.9,2.3-10.6
				c0.1-3.7-0.7-7.3-2.3-10.6c-1.4-2.9-3.6-5.3-6.4-7C356.4,10.5,349.3,10.5,343.4,13.7z"/>
			<path class="st0" d="M471.9,6.2c5.1,4,8.6,9.7,10,16h-12.9c-1.2-3.2-3.4-5.9-6.2-7.8c-3-1.9-6.5-2.9-10-2.8
				c-6.4-0.1-12.2,3.6-14.8,9.4c-1.5,3.3-2.3,6.9-2.2,10.6c-0.1,3.6,0.7,7.2,2.2,10.5c2.6,5.8,8.5,9.5,14.8,9.4
				c3.6,0.1,7.1-0.9,10.1-2.9c2.8-1.9,5-4.6,6.2-7.8h12.8c-1.4,6.3-4.9,12-10,16c-5,3.9-11.4,5.9-19,5.9c-5.4,0.1-10.8-1.3-15.5-3.9
				c-4.5-2.6-8.1-6.4-10.4-11c-2.5-5-3.8-10.5-3.7-16.1c-0.1-5.6,1.2-11.2,3.7-16.2c2.3-4.6,5.9-8.4,10.4-11
				c4.7-2.7,10.1-4.1,15.5-3.9C460.6,0.3,466.9,2.2,471.9,6.2z"/>
			<path class="st0" d="M542.2,4c4.6,2.6,8.4,6.5,11,11.1c2.7,4.9,4.1,10.5,4,16.2c0.1,5.7-1.3,11.2-4,16.2
				c-2.6,4.7-6.4,8.5-11,11.2c-9.7,5.3-21.4,5.3-31.1,0c-4.6-2.6-8.4-6.5-11-11.2c-2.7-5-4.1-10.5-4-16.2c-0.1-5.6,1.3-11.2,4-16.2
				c2.6-4.7,6.4-8.5,11-11.1C520.8-1.3,532.5-1.3,542.2,4z M517.2,13.7c-2.8,1.7-5,4.1-6.4,7c-1.6,3.3-2.4,6.9-2.3,10.6
				c-0.1,3.7,0.7,7.3,2.3,10.6c1.4,2.9,3.6,5.3,6.4,7c5.9,3.2,13,3.2,18.9,0c2.8-1.7,5-4.1,6.4-7c1.6-3.3,2.4-6.9,2.4-10.6
				c0.1-3.7-0.7-7.3-2.3-10.6c-1.4-2.9-3.6-5.3-6.4-7C530.3,10.4,523.2,10.4,517.2,13.7L517.2,13.7z"/>
			<path class="st0" d="M639.3,1.6V62h-12.1V19.8L611.7,62h-10.6l-15.5-42v42h-12.2V1.6h14.8L606.5,47l18-45.5L639.3,1.6z"/>
			<path class="st0" d="M669.5,10.6v15.9h21.7v9.4h-21.7v16.5h24.3V62h-36.5V0.9h36.5v9.7H669.5z"/>
			<path class="st0" d="M741.6,62l-14.3-23.8h-5.4V62h-12.2V0.9H733c7.1,0,12.5,1.7,16.2,5.2c3.7,3.5,5.6,8,5.6,13.7
				c0.1,4.2-1.2,8.3-3.8,11.6c-2.6,3.1-6.3,5.2-11.2,6.2L755.1,62H741.6z M721.9,29.8h10c7,0,10.5-3.1,10.5-9.3
				c0.1-2.6-0.8-5.1-2.5-6.9c-1.7-1.6-4.3-2.5-7.9-2.5h-10V29.8z"/>
			<path class="st0" d="M816.6,6.2c5.1,4,8.6,9.7,10,16h-12.9c-1.2-3.2-3.4-5.9-6.2-7.8c-3-2-6.5-3-10.1-2.9
				c-6.4-0.1-12.2,3.6-14.8,9.4c-1.5,3.3-2.2,6.9-2.2,10.6c-0.1,3.6,0.7,7.2,2.2,10.5c2.6,5.8,8.5,9.5,14.8,9.4
				c3.6,0.1,7.1-0.9,10.1-2.9c2.8-1.9,5-4.6,6.2-7.8h12.8c-1.4,6.3-4.9,12-10,16c-5,3.9-11.4,5.9-19,5.9c-5.4,0.1-10.8-1.3-15.5-3.9
				c-4.5-2.6-8.1-6.4-10.4-11c-2.5-5-3.8-10.5-3.7-16.1c-0.1-5.6,1.2-11.2,3.7-16.2c2.3-4.6,5.9-8.4,10.3-11
				c4.7-2.7,10.1-4.1,15.6-3.9C805.2,0.3,811.6,2.2,816.6,6.2z"/>
			<path class="st0" d="M854.8,0.9V62h-12.2V0.9H854.8z"/>
			<path class="st0" d="M910.1,49.7h-24.5L881.3,62h-12.9l22.5-60.4h14L927.3,62h-12.9L910.1,49.7z M906.8,40.5l-9-25.8l-9,25.8
				H906.8z"/>
			<path class="st0" d="M953,52.7h20.5V62h-32.7V0.9h12.2L953,52.7z"/>
		</g>
	</g>
</g>
</svg>
