<?xml version="1.0" encoding="utf-8"?>
<!-- Generator: Adobe Illustrator 22.1.0, SVG Export Plug-In . SVG Version: 6.00 Build 0)  -->
<svg version="1.1" id="Capa_1" xmlns="http://www.w3.org/2000/svg" xmlns:xlink="http://www.w3.org/1999/xlink" x="0px" y="0px"
	 viewBox="0 0 919.5 148.9" style="enable-background:new 0 0 919.5 148.9;" xml:space="preserve">
<style type="text/css">
	.st0{enable-background:new    ;}
	.st1{fill:#FFFFFF;}
	.st2{opacity:0.2;}
</style>
<title>Recurso 13</title>
<g id="Capa_2_1_">
	<g id="Layer_1">
		<g class="st0">
			<g>
				<path class="st1" d="M97.5,74.6c3.5,2.7,5.8,6.4,6.9,11.1h-8.9c-0.9-2.3-2.4-4.1-4.3-5.4c-1.9-1.3-4.3-2-7-2
					c-2.2,0-4.3,0.6-6.1,1.7c-1.8,1.1-3.2,2.7-4.2,4.8c-1,2.1-1.5,4.5-1.5,7.3c0,2.8,0.5,5.2,1.5,7.3c1,2.1,2.4,3.7,4.2,4.8
					c1.8,1.1,3.8,1.7,6.1,1.7c2.7,0,5-0.7,7-2c1.9-1.3,3.4-3.1,4.3-5.4h8.9c-1.1,4.7-3.4,8.4-6.9,11.1s-7.9,4.1-13.1,4.1
					c-4,0-7.6-0.9-10.7-2.7c-3.1-1.8-5.5-4.4-7.2-7.7c-1.7-3.3-2.5-7-2.5-11.2c0-4.2,0.8-7.9,2.5-11.2c1.7-3.3,4.1-5.8,7.2-7.6
					c3.1-1.8,6.7-2.7,10.7-2.7C89.6,70.5,94,71.9,97.5,74.6z"/>
			</g>
			<g>
				<path class="st1" d="M123.9,70.9v42.4h-8.5V70.9H123.9z"/>
			</g>
			<g>
				<path class="st1" d="M144.8,77.6v11h15v6.5h-15v11.4h16.8v6.8h-25.3V70.9h25.3v6.7H144.8z"/>
			</g>
			<g>
				<path class="st1" d="M204.9,74.6c3.5,2.7,5.8,6.4,6.9,11.1h-8.9c-0.9-2.3-2.4-4.1-4.3-5.4c-1.9-1.3-4.3-2-7-2
					c-2.2,0-4.3,0.6-6.1,1.7c-1.8,1.1-3.2,2.7-4.2,4.8c-1,2.1-1.5,4.5-1.5,7.3c0,2.8,0.5,5.2,1.5,7.3c1,2.1,2.4,3.7,4.2,4.8
					c1.8,1.1,3.8,1.7,6.1,1.7c2.7,0,5-0.7,7-2c1.9-1.3,3.4-3.1,4.3-5.4h8.9c-1.1,4.7-3.4,8.4-6.9,11.1s-7.9,4.1-13.1,4.1
					c-4,0-7.6-0.9-10.7-2.7c-3.1-1.8-5.5-4.4-7.2-7.7c-1.7-3.3-2.5-7-2.5-11.2c0-4.2,0.8-7.9,2.5-11.2c1.7-3.3,4.1-5.8,7.2-7.6
					c3.1-1.8,6.7-2.7,10.7-2.7C197,70.5,201.4,71.9,204.9,74.6z"/>
			</g>
			<g>
				<path class="st1" d="M296.2,70.9l-10.4,42.4h-10.4l-7.9-30.7l-8,30.7h-10.4l-10.4-42.4h9.2l6.5,32.8l8.4-32.8h9.3l8.5,32.8
					l6.5-32.8H296.2z"/>
			</g>
			<g>
				<path class="st1" d="M335.5,70.9v6.7h-11.7v35.6h-8.5V77.6h-11.6v-6.7H335.5z"/>
			</g>
			<g>
				<path class="st1" d="M377.2,74.6c3.5,2.7,5.8,6.4,6.9,11.1h-8.9c-0.9-2.3-2.3-4.1-4.3-5.4s-4.3-2-7-2c-2.2,0-4.3,0.6-6.1,1.7
					c-1.8,1.1-3.2,2.7-4.2,4.8c-1,2.1-1.5,4.5-1.5,7.3c0,2.8,0.5,5.2,1.5,7.3c1,2.1,2.4,3.7,4.2,4.8c1.8,1.1,3.8,1.7,6.1,1.7
					c2.7,0,5-0.7,7-2s3.4-3.1,4.3-5.4h8.9c-1.1,4.7-3.4,8.4-6.9,11.1c-3.5,2.7-7.9,4.1-13.1,4.1c-4,0-7.6-0.9-10.7-2.7
					c-3.1-1.8-5.5-4.4-7.2-7.7c-1.7-3.3-2.5-7-2.5-11.2c0-4.2,0.8-7.9,2.5-11.2c1.7-3.3,4.1-5.8,7.2-7.6c3.1-1.8,6.7-2.7,10.7-2.7
					C369.4,70.5,373.8,71.9,377.2,74.6z"/>
			</g>
			<g>
				<path class="st1" d="M447.2,70.9l-14.3,27.5v14.8h-8.5V98.4l-14.4-27.5h9.7l9,18.5l9-18.5H447.2z"/>
			</g>
			<g>
				<path class="st1" d="M482.8,97.6v15.7h-8.5V70.9h15.4c5,0,8.8,1.2,11.3,3.6c2.5,2.4,3.8,5.7,3.8,9.8c0,4-1.3,7.3-3.9,9.7
					c-2.6,2.4-6.4,3.6-11.2,3.6H482.8z M496.3,84.3c0-2.1-0.6-3.7-1.7-4.9c-1.2-1.1-3.1-1.7-5.7-1.7h-6.1v13h6.1
					C493.8,90.8,496.3,88.6,496.3,84.3z"/>
			</g>
			<g>
				<path class="st1" d="M523.6,77.6v11h15v6.5h-15v11.4h16.8v6.8h-25.3V70.9h25.3v6.7H523.6z"/>
			</g>
			<g>
				<path class="st1" d="M559.8,97.6v15.7h-8.5V70.9h15.4c5,0,8.8,1.2,11.3,3.6c2.5,2.4,3.8,5.7,3.8,9.8c0,4-1.3,7.3-3.9,9.7
					c-2.6,2.4-6.4,3.6-11.2,3.6H559.8z M573.3,84.3c0-2.1-0.6-3.7-1.7-4.9c-1.2-1.1-3.1-1.7-5.7-1.7h-6.1v13h6.1
					C570.8,90.8,573.3,88.6,573.3,84.3z"/>
			</g>
			<g>
				<path class="st1" d="M619.6,107.7c-1.1,1.8-2.7,3.3-4.8,4.4c-2.1,1.1-4.7,1.7-7.7,1.7c-3,0-5.7-0.5-8-1.5
					c-2.4-1-4.3-2.5-5.7-4.4c-1.4-1.9-2.2-4.2-2.4-6.7h9c0.2,1.7,0.9,3.2,2.1,4.3c1.2,1.1,2.8,1.7,4.7,1.7c1.8,0,3.1-0.5,4-1.4
					c0.9-0.9,1.4-2.1,1.4-3.6c0-1.3-0.4-2.4-1.1-3.3c-0.8-0.9-1.7-1.6-2.9-2.1c-1.2-0.5-2.8-1.1-4.8-1.8c-2.6-0.9-4.8-1.7-6.5-2.6
					c-1.7-0.9-3.1-2.1-4.3-3.8c-1.2-1.6-1.8-3.8-1.8-6.4c0-3.6,1.3-6.5,3.9-8.6c2.6-2.1,6.1-3.2,10.4-3.2c4.5,0,8,1.1,10.7,3.2
					c2.7,2.2,4.2,5,4.5,8.6h-9.1c-0.2-1.5-0.9-2.8-1.9-3.8c-1-1-2.5-1.5-4.3-1.5c-1.6,0-2.8,0.4-3.8,1.2c-1,0.8-1.4,2-1.4,3.6
					c0,1.2,0.4,2.3,1.1,3.1c0.7,0.8,1.7,1.5,2.8,2c1.1,0.5,2.7,1.1,4.7,1.7c2.7,1,4.9,1.9,6.6,2.7c1.7,0.8,3.2,2.1,4.3,3.8
					c1.2,1.7,1.8,3.9,1.8,6.6C621.3,103.8,620.7,105.8,619.6,107.7z"/>
			</g>
			<g>
				<path class="st1" d="M640.7,70.9v42.4h-8.5V70.9H640.7z"/>
			</g>
			<g>
				<path class="st1" d="M703.2,74.6c3.5,2.7,5.8,6.4,6.9,11.1h-8.9c-0.9-2.3-2.3-4.1-4.3-5.4s-4.3-2-7-2c-2.2,0-4.3,0.6-6.1,1.7
					s-3.2,2.7-4.2,4.8c-1,2.1-1.5,4.5-1.5,7.3c0,2.8,0.5,5.2,1.5,7.3c1,2.1,2.4,3.7,4.2,4.8s3.8,1.7,6.1,1.7c2.7,0,5-0.7,7-2
					s3.4-3.1,4.3-5.4h8.9c-1.1,4.7-3.4,8.4-6.9,11.1c-3.5,2.7-7.9,4.1-13.1,4.1c-4,0-7.6-0.9-10.7-2.7s-5.5-4.4-7.2-7.7
					c-1.7-3.3-2.6-7-2.6-11.2c0-4.2,0.8-7.9,2.6-11.2c1.7-3.3,4.1-5.8,7.2-7.6c3.1-1.8,6.7-2.7,10.7-2.7
					C695.4,70.5,699.7,71.9,703.2,74.6z"/>
			</g>
			<g>
				<path class="st1" d="M729.7,77.6v11h15v6.5h-15v11.4h16.8v6.8h-25.3V70.9h25.3v6.7H729.7z"/>
			</g>
			<g>
				<path class="st1" d="M793.3,113.3h-8.5l-19-28.8v28.8h-8.5V70.9h8.5l19,29v-29h8.5V113.3z"/>
			</g>
			<g>
				<path class="st1" d="M834.6,70.9v6.7h-11.7v35.6h-8.5V77.6h-11.6v-6.7H834.6z"/>
			</g>
			<g>
				<path class="st1" d="M852.4,77.6v11h15v6.5h-15v11.4h16.8v6.8H844V70.9h25.3v6.7H852.4z"/>
			</g>
			<g>
				<path class="st1" d="M902.3,113.3l-9.9-16.5h-3.7v16.5h-8.5V70.9h16.1c4.9,0,8.7,1.2,11.3,3.6c2.6,2.4,3.9,5.6,3.9,9.5
					c0,3.2-0.9,5.9-2.7,8c-1.8,2.2-4.3,3.6-7.7,4.3l10.6,16.9H902.3z M888.7,90.9h7c4.8,0,7.3-2.1,7.3-6.4c0-2-0.6-3.6-1.8-4.8
					c-1.2-1.1-3-1.7-5.5-1.7h-7V90.9z"/>
			</g>
		</g>
		<g class="st2">
			<g class="st0">
				<g>
					<path class="st1" d="M24.6,52.6c-4.1,0-7.8-0.9-11-2.8C10.4,48,8,45.3,6.2,42c-1.7-3.3-2.6-7.2-2.6-11.4
						c0-4.3,0.9-8.1,2.6-11.5c1.7-3.3,4.2-6,7.4-7.9c3.1-1.9,6.8-2.8,11-2.8c5.4,0,9.9,1.4,13.4,4.2l0,0c3.6,2.8,5.9,6.6,7.1,11.4
						l0.1,0.6h-9.9l-0.1-0.3c-0.9-2.2-2.3-3.9-4.1-5.2c-1.8-1.3-4.1-1.9-6.7-1.9c-2.1,0-4.1,0.5-5.8,1.6c-1.7,1.1-3.1,2.6-4,4.6
						c-1,2-1.5,4.4-1.5,7.1c0,2.7,0.5,5,1.5,7c1,2,2.3,3.5,4,4.6c1.7,1.1,3.7,1.6,5.8,1.6c2.6,0,4.9-0.6,6.7-1.9
						c1.8-1.3,3.2-3,4.1-5.2l0.1-0.3h9.9l-0.1,0.6c-1.1,4.8-3.5,8.6-7.1,11.4C34.5,51.2,30,52.6,24.6,52.6z M24.6,9.5
						c-4,0-7.5,0.9-10.5,2.7c-3,1.8-5.3,4.3-7,7.4c-1.7,3.2-2.5,6.9-2.5,11c0,4.1,0.8,7.7,2.5,10.9c1.6,3.2,4,5.7,7,7.4
						c3,1.8,6.5,2.7,10.5,2.7c5.1,0,9.5-1.3,12.8-4c3.2-2.5,5.4-5.9,6.6-10.2h-7.9c-1,2.2-2.4,4-4.3,5.3c-2,1.4-4.5,2.1-7.3,2.1
						c-2.3,0-4.5-0.6-6.3-1.8c-1.9-1.2-3.3-2.8-4.4-5c-1-2.1-1.5-4.7-1.5-7.5c0-2.9,0.5-5.4,1.5-7.5c1-2.2,2.5-3.8,4.4-5
						c1.9-1.2,4-1.8,6.3-1.8c2.8,0,5.3,0.7,7.3,2.1c1.9,1.3,3.4,3.1,4.3,5.3H44c-1.1-4.3-3.3-7.7-6.6-10.2
						C34,10.8,29.7,9.5,24.6,9.5z"/>
				</g>
				<g>
					<path class="st1" d="M64.7,52.3h-9.5V8.9h9.5V52.3z M56.2,51.3h7.5V9.9h-7.5V51.3z"/>
				</g>
				<g>
					<path class="st1" d="M102.4,52.3H76.1V8.9h26.3v7.7H85.6v10h15v7.5h-15v10.4h16.8V52.3z M77.1,51.3h24.3v-5.8H84.6V33.1h15
						v-5.5h-15v-12h16.8V9.9H77.1V51.3z"/>
				</g>
				<g>
					<path class="st1" d="M132,52.6c-4.1,0-7.8-0.9-11-2.8c-3.2-1.9-5.7-4.5-7.4-7.9c-1.7-3.3-2.6-7.2-2.6-11.4
						c0-4.3,0.9-8.1,2.6-11.5c1.7-3.3,4.2-6,7.4-7.9c3.1-1.9,6.8-2.8,11-2.8c5.4,0,9.9,1.4,13.4,4.2l0,0c3.6,2.8,5.9,6.6,7.1,11.4
						l0.1,0.6h-9.9l-0.1-0.3c-0.9-2.2-2.3-3.9-4.1-5.2c-1.8-1.3-4.1-1.9-6.7-1.9c-2.1,0-4.1,0.5-5.8,1.6c-1.7,1.1-3.1,2.6-4,4.6
						c-1,2-1.5,4.4-1.5,7.1c0,2.7,0.5,5,1.5,7c1,2,2.3,3.5,4,4.6c1.7,1.1,3.7,1.6,5.8,1.6c2.6,0,4.9-0.6,6.7-1.9
						c1.8-1.3,3.2-3,4.1-5.2l0.1-0.3h9.9l-0.1,0.6c-1.1,4.8-3.5,8.6-7.1,11.4C141.9,51.2,137.3,52.6,132,52.6z M132,9.5
						c-4,0-7.5,0.9-10.5,2.7c-3,1.8-5.3,4.3-7,7.4c-1.7,3.2-2.5,6.9-2.5,11c0,4.1,0.8,7.7,2.5,10.9c1.6,3.2,4,5.7,7,7.4
						c3,1.8,6.5,2.7,10.5,2.7c5.1,0,9.5-1.3,12.8-4c3.2-2.5,5.4-5.9,6.6-10.2h-7.9c-1,2.2-2.4,4-4.3,5.3c-2,1.4-4.5,2.1-7.3,2.1
						c-2.3,0-4.5-0.6-6.3-1.8c-1.9-1.2-3.3-2.8-4.4-5c-1-2.1-1.5-4.7-1.5-7.5c0-2.9,0.5-5.4,1.5-7.5c1-2.2,2.5-3.8,4.4-5
						c1.9-1.2,4-1.8,6.3-1.8c2.8,0,5.3,0.7,7.3,2.1c1.9,1.3,3.4,3.1,4.3,5.3h7.9c-1.1-4.3-3.3-7.7-6.6-10.2
						C141.4,10.8,137.1,9.5,132,9.5z"/>
				</g>
				<g>
					<path class="st1" d="M226.5,52.3h-11.2L207.8,23l-7.6,29.2H189L178.4,8.9h10.2l6.1,31.1l7.9-31.1h10.1l8,31.1l6.1-31.1h10.2
						L226.5,52.3z M216.1,51.3h9.7l10.1-41.4h-8.1l-6.8,34.6L212,9.9h-8.5l-8.9,34.6l-6.8-34.6h-8.1l10.1,41.4h9.6l8.4-32.2
						L216.1,51.3z"/>
				</g>
				<g>
					<path class="st1" d="M264.6,52.3h-9.5V16.6h-11.6V8.9h32.8v7.7h-11.7V52.3z M256.1,51.3h7.5V15.6h11.7V9.9h-30.8v5.7h11.6V51.3
						z"/>
				</g>
				<g>
					<path class="st1" d="M304.4,52.6c-4.1,0-7.8-0.9-11-2.8c-3.2-1.9-5.7-4.5-7.4-7.9c-1.7-3.3-2.6-7.2-2.6-11.4
						c0-4.3,0.9-8.1,2.6-11.5c1.7-3.3,4.2-6,7.4-7.9c3.1-1.9,6.8-2.8,11-2.8c5.4,0,9.9,1.4,13.4,4.2l0,0c3.6,2.8,5.9,6.6,7.1,11.4
						l0.1,0.6h-9.9l-0.1-0.3c-0.9-2.2-2.3-3.9-4.1-5.2c-1.8-1.3-4.1-1.9-6.7-1.9c-2.1,0-4.1,0.5-5.8,1.6c-1.7,1.1-3.1,2.6-4,4.6
						c-1,2-1.5,4.4-1.5,7.1c0,2.7,0.5,5,1.5,7c1,2,2.3,3.5,4,4.6c1.7,1.1,3.7,1.6,5.8,1.6c2.6,0,4.9-0.6,6.7-1.9
						c1.8-1.3,3.2-3,4.1-5.2l0.1-0.3h9.9l-0.1,0.6c-1.1,4.8-3.5,8.6-7.1,11.4C314.3,51.2,309.7,52.6,304.4,52.6z M304.4,9.5
						c-4,0-7.5,0.9-10.5,2.7c-3,1.8-5.3,4.3-7,7.4c-1.7,3.2-2.5,6.9-2.5,11c0,4.1,0.8,7.7,2.5,10.9c1.6,3.2,4,5.7,7,7.4
						c3,1.8,6.5,2.7,10.5,2.7c5.1,0,9.5-1.3,12.8-4c3.2-2.5,5.4-5.9,6.6-10.2h-7.9c-1,2.2-2.4,4-4.3,5.3c-2,1.4-4.5,2.1-7.3,2.1
						c-2.3,0-4.5-0.6-6.3-1.8c-1.9-1.2-3.3-2.8-4.4-5c-1-2.1-1.5-4.7-1.5-7.5c0-2.9,0.5-5.4,1.5-7.5c1-2.2,2.5-3.8,4.4-5
						c1.9-1.2,4-1.8,6.3-1.8c2.8,0,5.3,0.7,7.3,2.1c1.9,1.3,3.4,3.1,4.3,5.3h7.9c-1.1-4.3-3.3-7.7-6.6-10.2
						C313.8,10.8,309.5,9.5,304.4,9.5z"/>
				</g>
				<g>
					<path class="st1" d="M373.6,52.3h-9.5V37.1L349.4,8.9h10.9l8.7,17.9l8.7-17.9h10.7l-14.7,28.2V52.3z M365.1,51.3h7.5V36.8
						l14-26.9h-8.4l-9.3,19.2l-9.3-19.2H351l14.1,26.9V51.3z"/>
				</g>
				<g>
					<path class="st1" d="M423.5,52.3h-9.5V8.9H430c5.1,0,9,1.3,11.7,3.7c2.6,2.5,4,5.9,4,10.1c0,4.2-1.4,7.5-4.1,10
						c-2.7,2.5-6.6,3.7-11.5,3.7h-6.5V52.3z M415.1,51.3h7.5V35.6h7.5c4.7,0,8.3-1.2,10.9-3.5c2.5-2.3,3.8-5.4,3.8-9.3
						c0-4-1.2-7.1-3.7-9.4c-2.4-2.3-6.1-3.5-11-3.5h-14.9V51.3z M429.1,29.8h-6.6v-14h6.6c2.8,0,4.8,0.6,6,1.8
						c1.3,1.2,1.9,3,1.9,5.2C437,27.4,434.4,29.8,429.1,29.8z M423.5,28.8h5.6c4.7,0,6.9-2,6.9-6c0-2-0.5-3.5-1.6-4.5
						c-1.1-1-2.9-1.5-5.4-1.5h-5.6V28.8z"/>
				</g>
				<g>
					<path class="st1" d="M481.1,52.3h-26.3V8.9h26.3v7.7h-16.8v10h15v7.5h-15v10.4h16.8V52.3z M455.9,51.3h24.3v-5.8h-16.8V33.1h15
						v-5.5h-15v-12h16.8V9.9h-24.3V51.3z"/>
				</g>
				<g>
					<path class="st1" d="M500.6,52.3h-9.5V8.9H507c5.1,0,9,1.3,11.7,3.7c2.6,2.5,4,5.9,4,10.1c0,4.2-1.4,7.5-4.1,10
						c-2.7,2.5-6.6,3.7-11.5,3.7h-6.5V52.3z M492.1,51.3h7.5V35.6h7.5c4.7,0,8.3-1.2,10.9-3.5c2.5-2.3,3.8-5.4,3.8-9.3
						c0-4-1.2-7.1-3.7-9.4c-2.4-2.3-6.1-3.5-11-3.5h-14.9V51.3z M506.1,29.8h-6.6v-14h6.6c2.8,0,4.8,0.6,6,1.8
						c1.3,1.2,1.9,3,1.9,5.2C514.1,27.4,511.4,29.8,506.1,29.8z M500.6,28.8h5.6c4.7,0,6.9-2,6.9-6c0-2-0.5-3.5-1.6-4.5
						c-1.1-1-2.9-1.5-5.4-1.5h-5.6V28.8z"/>
				</g>
				<g>
					<path class="st1" d="M547.4,52.7c-3.1,0-5.8-0.5-8.2-1.6c-2.4-1-4.4-2.6-5.9-4.6c-1.5-2-2.3-4.3-2.5-7l0-0.5h10l0.1,0.4
						c0.2,1.6,0.8,2.9,1.9,4c1.1,1.1,2.5,1.6,4.4,1.6c1.6,0,2.9-0.4,3.7-1.3c0.9-0.9,1.3-1.9,1.3-3.3c0-1.2-0.3-2.2-1-2.9
						c-0.7-0.8-1.6-1.5-2.7-1.9c-1.1-0.5-2.7-1.1-4.8-1.8c-2.7-0.9-4.9-1.8-6.5-2.6c-1.7-0.9-3.2-2.2-4.5-3.9
						c-1.2-1.7-1.9-4-1.9-6.7c0-3.8,1.4-6.8,4.1-9c2.7-2.2,6.3-3.3,10.7-3.3c4.6,0,8.3,1.1,11,3.4c2.8,2.2,4.3,5.3,4.7,9l0.1,0.5
						h-10.1l-0.1-0.4c-0.2-1.4-0.8-2.6-1.8-3.5c-0.9-0.9-2.3-1.3-3.9-1.3c-1.4,0-2.6,0.4-3.5,1.1c-0.9,0.7-1.3,1.8-1.3,3.2
						c0,1.1,0.3,2,1,2.8c0.7,0.8,1.6,1.4,2.7,1.9c1.1,0.5,2.7,1.1,4.6,1.7c2.7,1,5,1.9,6.7,2.7c1.8,0.9,3.3,2.2,4.5,3.9
						c1.3,1.8,1.9,4.1,1.9,6.9c0,2.2-0.6,4.3-1.7,6.2l0,0c-1.1,1.9-2.8,3.4-5,4.6C553.1,52.1,550.5,52.7,547.4,52.7z M531.8,40
						c0.3,2.2,1,4.2,2.3,5.9c1.4,1.8,3.2,3.3,5.5,4.2c2.3,1,4.9,1.5,7.8,1.5c2.9,0,5.5-0.5,7.5-1.6c2-1.1,3.6-2.5,4.6-4.2v0
						c1-1.7,1.5-3.7,1.5-5.7c0-2.6-0.6-4.7-1.7-6.3c-1.1-1.6-2.5-2.8-4.2-3.6c-1.7-0.8-3.9-1.7-6.6-2.7c-2-0.6-3.5-1.2-4.7-1.8
						c-1.2-0.5-2.2-1.3-3-2.1c-0.8-0.9-1.2-2.1-1.2-3.4c0-1.7,0.5-3,1.6-4c1.1-0.9,2.4-1.3,4.1-1.3c1.9,0,3.5,0.5,4.6,1.6
						c1,1,1.7,2.2,2,3.6h8.1c-0.4-3.2-1.9-5.8-4.3-7.8c-2.6-2.1-6.1-3.1-10.4-3.1c-4.2,0-7.6,1-10.1,3c-2.5,2-3.7,4.8-3.7,8.2
						c0,2.5,0.6,4.6,1.7,6.1c1.1,1.6,2.5,2.8,4.1,3.6c1.6,0.8,3.8,1.7,6.4,2.6c2,0.7,3.7,1.3,4.8,1.8c1.2,0.5,2.2,1.3,3.1,2.2
						c0.8,1,1.3,2.2,1.3,3.6c0,1.6-0.5,3-1.6,4S548.9,46,547,46c-2.1,0-3.8-0.6-5.1-1.9c-1.2-1.1-1.9-2.5-2.2-4.1H531.8z"/>
				</g>
				<g>
					<path class="st1" d="M581.5,52.3H572V8.9h9.5V52.3z M573,51.3h7.5V9.9H573V51.3z"/>
				</g>
				<g>
					<path class="st1" d="M630.3,52.6c-4.1,0-7.8-0.9-11-2.8c-3.2-1.9-5.7-4.5-7.4-7.9c-1.7-3.3-2.6-7.2-2.6-11.4
						c0-4.3,0.9-8.1,2.6-11.5c1.7-3.3,4.2-6,7.4-7.9c3.1-1.9,6.8-2.8,11-2.8c5.4,0,9.9,1.4,13.4,4.2l0,0c3.6,2.8,5.9,6.6,7.1,11.4
						l0.1,0.6h-9.9l-0.1-0.3c-0.9-2.2-2.3-3.9-4.1-5.2c-1.8-1.3-4.1-1.9-6.7-1.9c-2.1,0-4.1,0.5-5.8,1.6c-1.7,1.1-3.1,2.6-4,4.6
						c-1,2-1.5,4.4-1.5,7.1c0,2.7,0.5,5,1.5,7c1,2,2.3,3.5,4,4.6c1.7,1.1,3.7,1.6,5.8,1.6c2.6,0,4.9-0.6,6.7-1.9
						c1.8-1.3,3.2-3,4.1-5.2l0.1-0.3h9.9l-0.1,0.6c-1.1,4.8-3.5,8.6-7.1,11.4C640.2,51.2,635.7,52.6,630.3,52.6z M630.3,9.5
						c-4,0-7.5,0.9-10.5,2.7c-3,1.8-5.3,4.3-7,7.4c-1.7,3.2-2.5,6.9-2.5,11c0,4.1,0.8,7.7,2.5,10.9c1.6,3.2,4,5.7,7,7.4
						c3,1.8,6.5,2.7,10.5,2.7c5.1,0,9.5-1.3,12.8-4c3.2-2.5,5.4-5.9,6.6-10.2h-7.9c-1,2.2-2.4,4-4.3,5.3c-2,1.4-4.5,2.1-7.3,2.1
						c-2.3,0-4.5-0.6-6.3-1.8c-1.9-1.2-3.3-2.8-4.4-5c-1-2.1-1.5-4.7-1.5-7.5c0-2.9,0.5-5.4,1.5-7.5c1-2.2,2.5-3.8,4.4-5
						c1.9-1.2,4-1.8,6.3-1.8c2.8,0,5.3,0.7,7.3,2.1c1.9,1.3,3.4,3.1,4.3,5.3h7.9c-1.1-4.3-3.3-7.7-6.6-10.2
						C639.8,10.8,635.5,9.5,630.3,9.5z"/>
				</g>
				<g>
					<path class="st1" d="M687.2,52.3H661V8.9h26.3v7.7h-16.8v10h15v7.5h-15v10.4h16.8V52.3z M662,51.3h24.3v-5.8h-16.8V33.1h15
						v-5.5h-15v-12h16.8V9.9H662V51.3z"/>
				</g>
				<g>
					<path class="st1" d="M734.1,52.3h-9.2l-18.2-27.6v27.6h-9.5V8.9h9.2l0.1,0.2l18,27.6V8.9h9.5V52.3z M725.4,51.3h7.7V9.9h-7.5
						v30.2L705.9,9.9h-7.7v41.4h7.5v-30L725.4,51.3z"/>
				</g>
				<g>
					<path class="st1" d="M763.6,52.3h-9.5V16.6h-11.6V8.9h32.8v7.7h-11.7V52.3z M755.2,51.3h7.5V15.6h11.7V9.9h-30.8v5.7h11.6V51.3
						z"/>
				</g>
				<g>
					<path class="st1" d="M810,52.3h-26.3V8.9H810v7.7h-16.8v10h15v7.5h-15v10.4H810V52.3z M784.7,51.3H809v-5.8h-16.8V33.1h15v-5.5
						h-15v-12H809V9.9h-24.3V51.3z"/>
				</g>
				<g>
					<path class="st1" d="M852.8,52.3h-10.5l-9.9-16.5h-2.9v16.5H820V8.9h16.6c5,0,8.9,1.3,11.6,3.7c2.7,2.5,4,5.8,4,9.8
						c0,3.3-0.9,6.1-2.8,8.4c-1.7,2.1-4.2,3.5-7.3,4.3L852.8,52.3z M842.8,51.3h8.2l-10.5-16.8l0.7-0.1c3.2-0.7,5.7-2.1,7.4-4.1
						c1.7-2.1,2.6-4.7,2.6-7.7c0-3.8-1.2-6.8-3.7-9.1c-2.5-2.3-6.1-3.5-10.9-3.5H821v41.4h7.5V34.8h4.5L842.8,51.3z M835.9,29.9
						h-7.5V16.1h7.5c2.6,0,4.6,0.6,5.8,1.9c1.3,1.2,1.9,3,1.9,5.1C843.6,27.6,841,29.9,835.9,29.9z M829.4,28.9h6.5
						c4.5,0,6.8-1.9,6.8-5.9c0-1.9-0.5-3.4-1.6-4.4c-1.1-1-2.8-1.6-5.1-1.6h-6.5V28.9z"/>
				</g>
			</g>
		</g>
	</g>
</g>
<g id="Capa_2_2_">
	<g id="Layer_1_1_">
		
			<text transform="matrix(1 0 0 1 -268.683 -258.7672)" class="st1" style="font-family:'Poppins-SemiBold'; font-size:60px; letter-spacing:4;">CIEC WTC Y PEPSI CENTER</text>
		<g class="st2">
			
				<text transform="matrix(1 0 0 1 -328.433 -320.2672)" style="fill:none;stroke:#FFFFFF;stroke-miterlimit:10; font-family:'Poppins-SemiBold'; font-size:60px; letter-spacing:4;">CIEC WTC Y PEPSI CENTER</text>
		</g>
	</g>
</g>
</svg>
