<svg xmlns="http://www.w3.org/2000/svg" viewBox="0 0 91.05 226.42"><defs><style>.cls-1{fill:#fff;}</style></defs><title>Recurso 10</title><g id="Capa_2" data-name="Capa 2"><g id="Layer_1" data-name="Layer 1"><path class="cls-1" d="M15.36,208.66h23V177.18H52v31.48H75.94V173.4H90.17v53H1.26v-53h14.1Z"/><path class="cls-1" d="M78.39,92.56a24.3,24.3,0,0,1,9.19,10.07q3.47,6.68,3.47,16.25a42.16,42.16,0,0,1-3.21,16.87,28.55,28.55,0,0,1-9.26,11.9,26.7,26.7,0,0,1-14.1,5.1V133.86a14.45,14.45,0,0,0,9-4.34,13.64,13.64,0,0,0,3.59-9.89c0-3.69-1-6.53-3-8.5a10.32,10.32,0,0,0-7.62-3,10,10,0,0,0-6.86,2.39,17.54,17.54,0,0,0-4.35,6q-1.64,3.65-3.77,10.07A100.32,100.32,0,0,1,46,140.28a25.22,25.22,0,0,1-7.87,9Q33,153,24.68,153q-11.46,0-18.07-8.25T0,122.9q0-14.1,6.8-22.47a25.62,25.62,0,0,1,18.13-9.51v19.14a13.36,13.36,0,0,0-7.87,4Q14,117.36,14,123A11.79,11.79,0,0,0,16.56,131q2.58,3,7.49,3a9.33,9.33,0,0,0,6.49-2.33,17.88,17.88,0,0,0,4.22-5.92A96.87,96.87,0,0,0,38.41,116a127.46,127.46,0,0,1,5.67-13.92A24.52,24.52,0,0,1,52,92.93q5.3-3.78,13.85-3.77A24.06,24.06,0,0,1,78.39,92.56Z"/><path class="cls-1" d="M90.17,19.65,55.54,40.42v7.81H90.17V66H1.26V32.11q0-15.48,7.56-23.61T28.71.38Q38.79.38,45.59,6t9.06,16.18L90.17,0ZM43.32,48.23V33.62q0-15.22-13.47-15.23c-4.29,0-7.62,1.24-10,3.71s-3.58,6.32-3.58,11.52V48.23Z"/></g></g></svg>