<?xml version="1.0" encoding="utf-8"?>
<!-- Generator: Adobe Illustrator 22.0.1, SVG Export Plug-In . SVG Version: 6.00 Build 0)  -->
<svg version="1.1" id="Capa_1" xmlns="http://www.w3.org/2000/svg" xmlns:xlink="http://www.w3.org/1999/xlink" x="0px" y="0px"
	 viewBox="0 0 230.2 92.5" style="enable-background:new 0 0 230.2 92.5;" xml:space="preserve">
<style type="text/css">
	.st0{fill:#FFFFFF;}
</style>
<g id="Capa_2_1_">
	<g id="Layer_1">
		<path class="st0" d="M19.2,15.6v23h31.5v13.6H19.2v23.9h35.3v14.2h-53V1.5h53v14.1L19.2,15.6z"/>
		<path class="st0" d="M135.3,78.6c-2.4,4-5.9,7.2-10.1,9.2c-4.5,2.3-9.9,3.5-16.2,3.5c-5.8,0.1-11.5-1-16.9-3.2
			c-4.7-2-8.8-5.2-11.9-9.3c-3-4.1-4.8-9-5.1-14.1H94c0.3,3.4,1.9,6.6,4.3,9c2.7,2.5,6.2,3.8,9.9,3.6c3.7,0,6.5-1,8.5-3
			c2-2,3.1-4.8,3-7.6c0.1-2.5-0.8-5-2.4-6.9c-1.7-1.9-3.7-3.3-6-4.3c-2.4-1.1-5.8-2.3-10.1-3.8c-4.7-1.5-9.3-3.3-13.7-5.5
			c-3.6-1.9-6.7-4.6-9-7.9c-2.5-3.4-3.7-7.9-3.7-13.5c0-7.6,2.8-13.7,8.2-18.1S95.9,0.2,105,0.2c9.4,0,16.9,2.3,22.5,6.8
			c5.6,4.5,9,11,9.5,18.1h-19.1c-0.4-3-1.8-5.8-4-7.9c-2.2-2-5.2-3.1-8.9-3.1c-2.9-0.2-5.7,0.8-8,2.6c-2,1.7-3,4.2-3,7.5
			c-0.1,2.4,0.8,4.7,2.3,6.5c1.7,1.8,3.7,3.2,5.9,4.2c3.2,1.4,6.4,2.6,9.8,3.7c4.7,1.6,9.4,3.5,13.9,5.7c3.7,1.8,6.8,4.6,9.1,7.9
			c2.5,3.5,3.8,8.1,3.8,13.8C138.8,70.5,137.6,74.8,135.3,78.6z"/>
		<path class="st0" d="M208.2,90.4l-20.8-34.6h-7.8v34.6h-17.8V1.5h33.9c10.3,0,18.2,2.5,23.6,7.6s8.1,11.7,8.1,19.9
			c0,6.7-1.9,12.3-5.6,16.9c-3.7,4.5-9.1,7.6-16.2,9.1l22.2,35.5H208.2z M179.7,43.6h14.6c10.1,0,15.2-4.5,15.2-13.5
			c0-4.3-1.2-7.6-3.7-10s-6.3-3.6-11.5-3.6h-14.6V43.6z"/>
	</g>
</g>
</svg>
