<svg xmlns="http://www.w3.org/2000/svg" viewBox="0 0 870.56 60.55"><defs><style>.cls-1{fill:#fff;}</style></defs><title>Recurso 14</title><g id="Capa_2" data-name="Capa 2"><g id="Layer_1" data-name="Layer 1"><path class="cls-1" d="M11.81,10.22V25.54H32.75v9.05H11.81V50.5H35.26V60H0V.84H35.26v9.38Z"/><path class="cls-1" d="M89,52.13a16.26,16.26,0,0,1-6.71,6.12,23.29,23.29,0,0,1-10.8,2.3A27.89,27.89,0,0,1,60.3,58.41a18.87,18.87,0,0,1-7.91-6.15A17.72,17.72,0,0,1,49,42.88H61.55a9.64,9.64,0,0,0,2.89,6A9.07,9.07,0,0,0,71,51.25a7.64,7.64,0,0,0,5.65-2,6.88,6.88,0,0,0,2-5.07,6.63,6.63,0,0,0-1.59-4.56,11.4,11.4,0,0,0-4-2.89q-2.43-1.1-6.7-2.52a65.36,65.36,0,0,1-9-3.64,16.65,16.65,0,0,1-6-5.23,15,15,0,0,1-2.48-9,14.55,14.55,0,0,1,5.49-12Q59.8,0,68.84,0q9.38,0,15,4.52a17.09,17.09,0,0,1,6.32,12.06H77.38a8.85,8.85,0,0,0-2.68-5.23,8.3,8.3,0,0,0-5.94-2A7.87,7.87,0,0,0,63.48,11a6.21,6.21,0,0,0-2,5A6.2,6.2,0,0,0,63,20.31,11.79,11.79,0,0,0,67,23.11a62.27,62.27,0,0,0,6.49,2.43,87,87,0,0,1,9.25,3.77,16.23,16.23,0,0,1,6.07,5.28,15.45,15.45,0,0,1,2.52,9.21A16.08,16.08,0,0,1,89,52.13Z"/><path class="cls-1" d="M146.89.84v9.38H130.56V60h-11.8V10.22H102.51V.84Z"/><path class="cls-1" d="M196.14,48.07h-23.7L168.25,60H155.77L177.55,1.51H191L212.72,60H200.24Zm-3.18-9-8.71-25-8.71,25Z"/><path class="cls-1" d="M270.84,6a26.88,26.88,0,0,1,9.63,15.49H268.08a16.3,16.3,0,0,0-6-7.54,17,17,0,0,0-9.76-2.76,15.4,15.4,0,0,0-14.32,9,23.45,23.45,0,0,0-2.09,10.22A23.2,23.2,0,0,0,238,40.53a15.43,15.43,0,0,0,14.32,9,17,17,0,0,0,9.76-2.76,16.3,16.3,0,0,0,6-7.54h12.39a26.88,26.88,0,0,1-9.63,15.49q-7.29,5.7-18.34,5.7a29,29,0,0,1-14.95-3.81A25.9,25.9,0,0,1,227.5,46a33.39,33.39,0,0,1-3.56-15.58,33.58,33.58,0,0,1,3.56-15.66,26,26,0,0,1,10-10.68,28.93,28.93,0,0,1,15-3.81Q263.56.25,270.84,6Z"/><path class="cls-1" d="M307.86.84V60H296.05V.84Z"/><path class="cls-1" d="M368,3.85a28.06,28.06,0,0,1,10.64,10.76,31.35,31.35,0,0,1,3.89,15.62,31.52,31.52,0,0,1-3.89,15.66A27.92,27.92,0,0,1,368,56.7a31.28,31.28,0,0,1-30.07,0,27.83,27.83,0,0,1-10.63-10.81,31.43,31.43,0,0,1-3.9-15.66,31.25,31.25,0,0,1,3.9-15.62A28,28,0,0,1,338,3.85a31.28,31.28,0,0,1,30.07,0Zm-24.16,9.38A16.06,16.06,0,0,0,337.71,20a22.53,22.53,0,0,0-2.22,10.26,22.48,22.48,0,0,0,2.22,10.26,16,16,0,0,0,6.16,6.74,18.91,18.91,0,0,0,18.26,0,16,16,0,0,0,6.15-6.74,22.48,22.48,0,0,0,2.22-10.26A22.53,22.53,0,0,0,368.28,20a16.1,16.1,0,0,0-6.15-6.74,19,19,0,0,0-18.26,0Z"/><path class="cls-1" d="M448.22,60H436.41l-26.47-40.2V60h-11.8V.84h11.8l26.47,40.53V.84h11.81Z"/><path class="cls-1" d="M501.65,48.07H478L473.76,60H461.28L483.06,1.51h13.48L518.23,60H505.75Zm-3.18-9-8.71-25-8.71,25Z"/><path class="cls-1" d="M595,1.51V60H583.3V19.18L568.31,60H558.1l-15-40.61V60H531.3V1.51h14.32l17.75,44,17.42-44Z"/><path class="cls-1" d="M624.26.84V60H612.45V.84Z"/><path class="cls-1" d="M653.48,10.22V25.54h20.94v9.05H653.48V50.5h23.45V60H641.68V.84h35.25v9.38Z"/><path class="cls-1" d="M742.42,60h-11.8l-26.47-40.2V60H692.34V.84h11.81l26.47,40.53V.84h11.8Z"/><path class="cls-1" d="M800,.84v9.38H783.71V60h-11.8V10.22H755.66V.84Z"/><path class="cls-1" d="M856,3.85a28.06,28.06,0,0,1,10.64,10.76,31.35,31.35,0,0,1,3.89,15.62,31.52,31.52,0,0,1-3.89,15.66A27.92,27.92,0,0,1,856,56.7a31.28,31.28,0,0,1-30.07,0,27.83,27.83,0,0,1-10.63-10.81,31.43,31.43,0,0,1-3.9-15.66,31.25,31.25,0,0,1,3.9-15.62A28,28,0,0,1,826,3.85a31.28,31.28,0,0,1,30.07,0Zm-24.16,9.38A16.06,16.06,0,0,0,825.71,20a22.53,22.53,0,0,0-2.22,10.26,22.48,22.48,0,0,0,2.22,10.26,16,16,0,0,0,6.16,6.74,18.91,18.91,0,0,0,18.26,0,16,16,0,0,0,6.15-6.74,22.48,22.48,0,0,0,2.22-10.26A22.53,22.53,0,0,0,856.28,20a16.1,16.1,0,0,0-6.15-6.74,19,19,0,0,0-18.26,0Z"/></g></g></svg>