<?xml version="1.0" encoding="utf-8"?>
<!-- Generator: Adobe Illustrator 22.0.1, SVG Export Plug-In . SVG Version: 6.00 Build 0)  -->
<svg version="1.1" id="Capa_1" xmlns="http://www.w3.org/2000/svg" xmlns:xlink="http://www.w3.org/1999/xlink" x="0px" y="0px"
	 viewBox="0 0 701.9 107" style="enable-background:new 0 0 701.9 107;" xml:space="preserve">
<style type="text/css">
	.st0{opacity:0.2;}
	.st1{fill:#FFFFFF;}
</style>
<title>Recurso 9</title>
<g id="Capa_2_1_">
	<g id="Layer_1">
		<g class="st0">
			<path class="st1" d="M88,5.5L87.7,103L68.1,103l0.1-42.4l-41.7-0.1l-0.1,42.4L7,102.8L7.2,5.3l19.5,0.1l-0.1,39.5l41.7,0.1
				l0.1-39.5L88,5.5z"/>
			<path class="st1" d="M136.2,5.6l-0.3,97.5l-19.5-0.1l0.3-97.5L136.2,5.6z"/>
			<path class="st1" d="M228,90.5c-2.7,4.3-6.5,7.8-11.1,10c-4.9,2.5-10.8,3.8-17.8,3.8c-6.3,0.1-12.6-1.1-18.5-3.6
				c-5.2-2.2-9.6-5.7-13-10.2c-3.3-4.5-5.2-9.9-5.5-15.5l20.7,0.1c0.4,3.8,2.1,7.3,4.8,9.9c2.7,2.6,6.3,4,10.8,4
				c4,0,7.2-1.1,9.3-3.2c2.2-2.2,3.4-5.2,3.3-8.3c0.1-2.7-0.8-5.4-2.6-7.5c-1.8-2.1-4.1-3.7-6.6-4.8c-2.7-1.2-6.3-2.6-11-4.2
				c-5.1-1.6-10.1-3.7-14.9-6c-3.9-2-7.3-5-9.9-8.7c-2.7-3.8-4-8.7-4-14.8c0-8.4,3-15,9.1-19.8s14-7.2,24-7.2
				c10.3,0,18.5,2.5,24.6,7.5c6.1,4.9,9.8,12.1,10.4,19.9l-21-0.1c-0.4-3.3-2-6.3-4.4-8.6c-2.4-2.3-5.7-3.4-9.8-3.4
				c-3.1-0.2-6.2,0.8-8.7,2.8c-2.2,1.9-3.3,4.6-3.3,8.2c-0.1,2.6,0.8,5.2,2.5,7.1c1.8,2,4,3.6,6.5,4.6c3.5,1.5,7.1,2.9,10.7,4
				c5.2,1.8,10.3,3.9,15.2,6.3c4,2,7.4,5,10,8.7c2.8,3.9,4.1,9,4.1,15.2C231.7,81.6,230.4,86.3,228,90.5z"/>
			<path class="st1" d="M323.6,6.1l0,15.5l-26.9-0.1l-0.2,82l-19.5-0.1l0.2-82l-26.8-0.1l0-15.5L323.6,6.1z"/>
			<path class="st1" d="M415.9,11.4c7.4,4.2,13.4,10.4,17.5,17.8c4.3,7.9,6.5,16.8,6.3,25.8c0.1,9-2.1,17.9-6.5,25.8
				c-4.1,7.4-10.2,13.6-17.6,17.8c-15.5,8.4-34.2,8.4-49.6-0.1c-7.4-4.2-13.4-10.4-17.5-17.9c-4.3-7.9-6.5-16.8-6.3-25.8
				c-0.1-9,2.1-17.9,6.5-25.7c4.1-7.4,10.2-13.5,17.6-17.7C381.8,2.8,400.5,2.8,415.9,11.4L415.9,11.4z M376,26.7
				c-4.4,2.6-7.9,6.5-10.2,11.1c-2.6,5.3-3.8,11.1-3.7,16.9c-0.1,5.8,1.1,11.7,3.6,16.9c2.2,4.6,5.7,8.5,10.1,11.1
				c9.4,5.2,20.7,5.2,30.1,0.1c4.4-2.6,7.9-6.5,10.2-11.1c2.5-5.3,3.8-11.1,3.7-16.9c0.1-5.8-1.1-11.6-3.6-16.9
				c-2.2-4.6-5.7-8.5-10.1-11.1C396.8,21.6,385.4,21.6,376,26.7L376,26.7z"/>
			<path class="st1" d="M516.2,104.2l-22.6-38.1l-8.6,0l-0.1,38l-19.5-0.1l0.3-97.5l37.1,0.1c11.3,0,20,2.8,25.9,8.4
				c5.9,5.5,8.9,12.8,8.9,21.8c0,7.4-2.1,13.5-6.2,18.5s-10,8.3-17.8,10l24.2,39.1L516.2,104.2z M485,52.7l16,0
				c11.1,0,16.7-4.9,16.8-14.7c0-4.7-1.3-8.4-4-11s-6.9-4-12.6-4l-16,0L485,52.7z"/>
			<path class="st1" d="M581.2,6.8l-0.3,97.5l-19.5-0.1l0.3-97.5L581.2,6.8z"/>
			<path class="st1" d="M669.1,85L630,84.9l-7,19.6l-20.6-0.1l36.2-96.3l22.2,0.1l35.5,96.5l-20.6-0.1L669.1,85z M663.9,70.2
				L649.6,29l-14.4,41.1L663.9,70.2z"/>
		</g>
		<path class="st1" d="M290.8,32.7l-0.2,56.4l-11.4,0l0.1-24.6l-24.2-0.1L255.1,89l-11.3,0l0.2-56.4l11.3,0l-0.1,22.8l24.2,0.1
			l0.1-22.8L290.8,32.7z"/>
		<path class="st1" d="M318.7,32.7l-0.2,56.4l-11.3,0l0.2-56.4L318.7,32.7z"/>
		<path class="st1" d="M371.9,81.9c-1.5,2.5-3.8,4.5-6.4,5.8c-3.2,1.5-6.8,2.3-10.3,2.2c-3.7,0.1-7.3-0.6-10.7-2
			c-3-1.3-5.6-3.3-7.5-5.9c-1.9-2.6-3-5.8-3.2-9l12,0c0.2,2.2,1.2,4.2,2.7,5.7c1.7,1.6,4,2.4,6.3,2.3c2,0.1,3.9-0.5,5.4-1.9
			c1.3-1.3,2-3,1.9-4.8c0.1-1.6-0.5-3.2-1.5-4.4c-1.1-1.2-2.4-2.1-3.8-2.8c-1.5-0.7-3.7-1.5-6.4-2.4c-3-1-5.8-2.1-8.6-3.5
			c-2.3-1.2-4.2-2.9-5.7-5c-1.7-2.5-2.5-5.5-2.3-8.5c-0.2-4.4,1.8-8.7,5.3-11.5c3.5-2.8,8.1-4.2,13.9-4.2c6,0,10.8,1.5,14.3,4.4
			c3.5,2.9,5.7,7,6,11.5l-12.2,0c-0.3-1.9-1.2-3.7-2.5-5c-1.6-1.4-3.6-2.1-5.7-2c-1.8-0.1-3.6,0.5-5,1.6c-1.3,1.2-2,3-1.9,4.8
			c-0.1,1.5,0.5,3,1.5,4.1c1.1,1.1,2.3,2.1,3.8,2.7c2,0.9,4.1,1.7,6.2,2.3c3,1,6,2.2,8.8,3.6c2.3,1.2,4.3,2.9,5.8,5
			c1.7,2.6,2.5,5.7,2.4,8.8C374.1,76.7,373.3,79.5,371.9,81.9z"/>
		<path class="st1" d="M427.3,33l0,9l-15.6,0l-0.1,47.4l-11.3,0l0.1-47.5l-15.5,0l0-8.9L427.3,33z"/>
		<path class="st1" d="M480.7,36c4.3,2.4,7.8,6,10.1,10.3c2.5,4.6,3.8,9.7,3.7,14.9c0.1,5.2-1.2,10.4-3.8,15
			c-2.4,4.3-5.9,7.9-10.2,10.3c-9,4.9-19.8,4.9-28.7-0.1c-4.3-2.4-7.8-6-10.1-10.3c-2.5-4.6-3.8-9.8-3.7-15
			c-0.1-5.2,1.2-10.4,3.8-14.9c2.4-4.3,5.9-7.8,10.2-10.3C461,31,471.8,31.1,480.7,36L480.7,36z M457.6,45c-2.5,1.5-4.6,3.8-5.9,6.4
			c-1.5,3.1-2.2,6.4-2.1,9.8c-0.1,3.4,0.6,6.7,2.1,9.8c1.3,2.7,3.3,4.9,5.9,6.5c5.4,3,12,3,17.4,0c2.5-1.5,4.6-3.8,5.9-6.4
			c1.5-3.1,2.2-6.5,2.1-9.9c0.1-3.4-0.6-6.7-2.1-9.8c-1.3-2.7-3.3-4.9-5.9-6.5C469.7,41.9,463.1,41.9,457.6,45L457.6,45z"/>
		<path class="st1" d="M538.8,89.8l-13.1-22l-5,0l-0.1,22l-11.2,0l0.2-56.4l21.5,0.1c6.6,0,11.6,1.6,15,4.8
			c3.5,3.3,5.3,7.9,5.1,12.7c0.1,3.9-1.2,7.7-3.6,10.7c-2.4,2.9-5.8,4.8-10.3,5.7l14,22.6L538.8,89.8z M520.7,60l9.3,0
			c6.4,0,9.7-2.8,9.7-8.5c0.1-2.4-0.7-4.7-2.3-6.4c-1.6-1.5-4-2.3-7.3-2.3l-9.3,0L520.7,60z"/>
		<path class="st1" d="M576.5,33.4l-0.2,56.4l-11.3,0l0.2-56.4L576.5,33.4z"/>
		<path class="st1" d="M627.4,78.7l-22.6-0.1l-4,11.3l-11.9,0l21-55.8l12.9,0l20.6,55.9l-11.9,0L627.4,78.7z M624.4,70.1l-8.3-23.9
			l-8.4,23.8L624.4,70.1z"/>
	</g>
</g>
</svg>
