<svg xmlns="http://www.w3.org/2000/svg" viewBox="0 0 99.86 689.49"><defs><style>.cls-1{opacity:0.2;}.cls-2{fill:#fff;}</style></defs><title>Recurso 9</title><g id="Capa_2" data-name="Capa 2"><g id="Layer_1" data-name="Layer 1"><g class="cls-1"><path class="cls-2" d="M1.38,608.69H98.9v19.62H56.49V670H98.9v19.47H1.38V670h39.5V628.31H1.38Z"/><path class="cls-2" d="M1.38,560.49H98.9V580H1.38Z"/><path class="cls-2" d="M86,468.5a26.79,26.79,0,0,1,10.08,11.05q3.81,7.32,3.8,17.82a46.19,46.19,0,0,1-3.52,18.51,31.32,31.32,0,0,1-10.15,13,29.28,29.28,0,0,1-15.47,5.59V513.81A15.79,15.79,0,0,0,80.59,509q3.94-4.07,3.94-10.84,0-6.07-3.25-9.33a11.3,11.3,0,0,0-8.35-3.24,11,11,0,0,0-7.53,2.62,19.05,19.05,0,0,0-4.76,6.63q-1.8,4-4.15,11.05a108.49,108.49,0,0,1-6,14.92,27.55,27.55,0,0,1-8.63,9.88q-5.66,4.07-14.78,4.07-12.57,0-19.82-9T0,501.79q0-15.46,7.46-24.66a28.12,28.12,0,0,1,19.89-10.42v21a14.6,14.6,0,0,0-8.63,4.42c-2.26,2.4-3.39,5.66-3.39,9.81a13,13,0,0,0,2.83,8.7q2.84,3.32,8.22,3.31a10.24,10.24,0,0,0,7.12-2.55,19.49,19.49,0,0,0,4.62-6.49,105.77,105.77,0,0,0,4-10.71,143.87,143.87,0,0,1,6.21-15.26,27,27,0,0,1,8.7-10q5.81-4.16,15.2-4.15A26.5,26.5,0,0,1,86,468.5Z"/><path class="cls-2" d="M1.38,373.06H16.85V400H98.9v19.48H16.85v26.8H1.38Z"/><path class="cls-2" d="M6.35,280.73A46.17,46.17,0,0,1,24.1,263.19a51.59,51.59,0,0,1,25.76-6.42,51.93,51.93,0,0,1,25.83,6.42,46,46,0,0,1,17.82,17.54,51.56,51.56,0,0,1,0,49.58,46,46,0,0,1-17.82,17.55,51.93,51.93,0,0,1-25.83,6.42,51.59,51.59,0,0,1-25.76-6.42A46.19,46.19,0,0,1,6.35,330.31a51.56,51.56,0,0,1,0-49.58Zm15.47,39.85a26.48,26.48,0,0,0,11.12,10.15,37.12,37.12,0,0,0,16.92,3.66,37.06,37.06,0,0,0,16.92-3.66A26.42,26.42,0,0,0,77.9,320.58a31.22,31.22,0,0,0,0-30.11,26.5,26.5,0,0,0-11.12-10.16,37.19,37.19,0,0,0-16.92-3.66,37.25,37.25,0,0,0-16.92,3.66,26.56,26.56,0,0,0-11.12,10.16,31.29,31.29,0,0,0,0,30.11Z"/><path class="cls-2" d="M98.9,180.25,60.91,203v8.56h38v19.47H1.38V193.92q0-17,8.29-25.9t21.82-8.91q11.06,0,18.51,6.15T60,183l39-24.31ZM47.51,211.6v-16q0-16.71-14.78-16.72c-4.69,0-8.35,1.37-11,4.08s-3.94,6.93-3.94,12.64v16Z"/><path class="cls-2" d="M1.38,115.47H98.9v19.47H1.38Z"/><path class="cls-2" d="M79.28,27.35V66.44l19.62,6.9V93.92L2.49,58V35.77L98.9,0V20.58ZM64.5,32.6,23.34,47,64.5,61.33Z"/></g><path class="cls-2" d="M28,405.82H84.44v11.36H59.88v24.16H84.44v11.28H28V441.34H50.84V417.18H28Z"/><path class="cls-2" d="M28,377.9H84.44v11.28H28Z"/><path class="cls-2" d="M77,324.62A15.43,15.43,0,0,1,82.8,331,22.14,22.14,0,0,1,85,341.34a26.79,26.79,0,0,1-2,10.72,18.21,18.21,0,0,1-5.88,7.56,17,17,0,0,1-9,3.24v-12a9.19,9.19,0,0,0,5.72-2.76,8.67,8.67,0,0,0,2.28-6.28,7.27,7.27,0,0,0-1.88-5.4,6.51,6.51,0,0,0-4.84-1.88A6.36,6.36,0,0,0,65,336.06a11.2,11.2,0,0,0-2.76,3.84c-.69,1.54-1.49,3.68-2.4,6.4a62.42,62.42,0,0,1-3.48,8.64,15.93,15.93,0,0,1-5,5.72A14.33,14.33,0,0,1,42.84,363a13.93,13.93,0,0,1-11.48-5.24q-4.2-5.25-4.2-13.88,0-9,4.32-14.28a16.29,16.29,0,0,1,11.52-6v12.16a8.48,8.48,0,0,0-5,2.56A8,8,0,0,0,36,344a7.51,7.51,0,0,0,1.64,5,5.92,5.92,0,0,0,4.76,1.92,5.93,5.93,0,0,0,4.12-1.48,11.19,11.19,0,0,0,2.68-3.76,59.63,59.63,0,0,0,2.32-6.2,82.43,82.43,0,0,1,3.6-8.84,15.55,15.55,0,0,1,5-5.8,14.82,14.82,0,0,1,8.8-2.4A15.3,15.3,0,0,1,77,324.62Z"/><path class="cls-2" d="M28,269.34h9v15.6H84.44v11.28H36.92v15.52H28Z"/><path class="cls-2" d="M30.84,215.86A26.76,26.76,0,0,1,41.12,205.7,29.87,29.87,0,0,1,56,202a30,30,0,0,1,15,3.72,26.6,26.6,0,0,1,10.32,10.16,29.86,29.86,0,0,1,0,28.72A26.6,26.6,0,0,1,71,254.74a30,30,0,0,1-15,3.72,29.87,29.87,0,0,1-14.92-3.72,26.76,26.76,0,0,1-10.28-10.16,29.86,29.86,0,0,1,0-28.72Zm9,23.08a15.32,15.32,0,0,0,6.44,5.88,21.53,21.53,0,0,0,9.8,2.12,21.5,21.5,0,0,0,9.8-2.12,15.26,15.26,0,0,0,6.44-5.88,18.09,18.09,0,0,0,0-17.44,15.26,15.26,0,0,0-6.44-5.88A21.5,21.5,0,0,0,56,213.5a21.53,21.53,0,0,0-9.8,2.12,15.32,15.32,0,0,0-6.44,5.88,18.09,18.09,0,0,0,0,17.44Z"/><path class="cls-2" d="M84.44,157.66l-22,13.2v5h22V187.1H28V165.58q0-9.84,4.8-15a16.46,16.46,0,0,1,12.64-5.16A16.31,16.31,0,0,1,56.12,149q4.32,3.56,5.76,10.28l22.56-14.08ZM54.68,175.82v-9.28q0-9.67-8.56-9.68a8.44,8.44,0,0,0-6.36,2.36q-2.28,2.35-2.28,7.32v9.28Z"/><path class="cls-2" d="M28,120.14H84.44v11.28H28Z"/><path class="cls-2" d="M73.08,69.1V91.74l11.36,4v11.92L28.6,86.86V74L84.44,53.26V65.18Zm-8.56,3L40.68,80.46l23.84,8.32Z"/></g></g></svg>