<svg xmlns="http://www.w3.org/2000/svg" viewBox="0 0 184.88 372.41"><defs><style>.cls-1{fill:#fff;}</style></defs><title>Recurso 2</title><g id="Capa_2" data-name="Capa 2"><g id="Layer_1" data-name="Layer 1"><path class="cls-1" d="M77.43,289.1v10.63c-4.59-1-9-1.56-13.16-2.78-26.89-7.79-48.37-22.48-59.06-49.32A73,73,0,0,1,.36,221.9C-.1,175.75.56,129.59,0,83.44-.38,51.38,14.36,28.72,41.22,13.29,77.61-7.62,125.53-3.53,157.9,23.22c17.44,14.41,26.9,33.09,26.85,56.16-.07,40.49,0,81-.07,121.49,0,10.47.81,21.12-.8,31.36-4.81,30.58-24.26,49.61-51.91,60.69-9.28,3.72-19.59,4.88-29.43,7.17-1.28.3-2.59.44-4.07.68v50.87l12.92-15.88,1.19,1.78,7.79,7.35L92.6,372.41,64.92,344.49l8.19-7,11.73,13.31,1.44-.73V145H98.19V289.37c7-1.29,13.36-2,19.48-3.71,21.91-6.17,39.55-18.05,50-39a54.39,54.39,0,0,0,5.57-24.61c0-46.32-.36-92.65.11-139,.27-25.94-11.31-44.64-32.57-58C105.94,3.32,56.46,8.69,29.13,37.06c-11.58,12-17.64,26.35-17.57,43.24.18,41.33.2,82.65.29,124,0,8-.71,16.07.23,23.95,2.88,24.38,17.49,40.49,38.62,51C58.94,283.38,68.07,285.72,77.43,289.1Z"/></g></g></svg>