<?xml version="1.0" encoding="utf-8"?>
<!-- Generator: Adobe Illustrator 22.1.0, SVG Export Plug-In . SVG Version: 6.00 Build 0)  -->
<svg version="1.1" id="Capa_1" xmlns="http://www.w3.org/2000/svg" xmlns:xlink="http://www.w3.org/1999/xlink" x="0px" y="0px"
	 viewBox="0 0 410.7 120.4" style="enable-background:new 0 0 410.7 120.4;" xml:space="preserve">
<style type="text/css">
	.st0{fill:#004B8A;}
</style>
<title>Recurso 3</title>
<g id="Capa_2_1_">
	<g id="Layer_1">
		<path class="st0" d="M162.2,1.2l-29.3,119.6h-29.5L81.1,34l-22.5,86.8H29.3L0,1.2h25.9l18.3,92.6L67.9,1.2h26.3L118,93.8
			l18.3-92.6H162.2z"/>
		<path class="st0" d="M273.3,1.2v19h-33v100.6h-23.9V20.1h-32.9v-19L273.3,1.2z"/>
		<path class="st0" d="M391.2,11.5c9.9,7.7,16.4,18.1,19.5,31.3h-25.1c-2.4-6.2-6.6-11.5-12.1-15.2c-5.5-3.7-12.1-5.6-19.7-5.6
			c-12.5-0.2-23.9,6.9-29,18.3c-2.8,5.9-4.2,12.8-4.2,20.7c-0.2,7.1,1.3,14.1,4.2,20.5c5.1,11.3,16.5,18.5,29,18.3
			c7.7,0,14.2-1.9,19.7-5.6c5.5-3.7,9.7-9.1,12.1-15.2h25.1c-3.2,13.2-9.7,23.6-19.5,31.3c-9.8,7.7-22.2,11.5-37.1,11.5
			c-11.4,0-21.5-2.6-30.2-7.7c-8.7-5.1-15.8-12.6-20.3-21.6c-4.8-9.3-7.2-19.8-7.2-31.5c0-11.9,2.4-22.4,7.2-31.7
			c4.5-9,11.6-16.5,20.2-21.6c8.7-5.1,18.8-7.7,30.3-7.7C369,0,381.4,3.8,391.2,11.5z"/>
	</g>
</g>
</svg>
