<svg xmlns="http://www.w3.org/2000/svg" viewBox="0 0 102.64 514.28"><defs><style>.cls-1{opacity:0.3;}.cls-2{fill:#fff;}</style></defs><title>Recurso 5</title><g id="Capa_2" data-name="Capa 2"><g id="Layer_1" data-name="Layer 1"><g class="cls-1"><path class="cls-2" d="M102.08,305.32H45.24V290.8l41.15-16.62-41.15-16.3V243.44h56.84v12.2H65.43l36.65,13.47v10.46L65.58,293h36.5Zm-55.84-1h54.84V294H60l41.1-15.17V269.8L59.81,254.64h41.27v-10.2H46.24V257.2l42.85,17-42.85,17.3Z"/><path class="cls-2" d="M102.08,227.8H44.6V215.52h57.48Zm-56.48-1h55.48V216.52H45.6Z"/><path class="cls-2" d="M60,201.64a14.46,14.46,0,0,1-11.87-5.43c-2.86-3.57-4.31-8.34-4.31-14.19,0-6.06,1.49-11,4.43-14.6a16.9,16.9,0,0,1,11.86-6.22l.55,0v13.14l-.42.06a8,8,0,0,0-4.72,2.41,7.52,7.52,0,0,0-1.82,5.34,7,7,0,0,0,1.52,4.71,5.38,5.38,0,0,0,4.38,1.75,5.4,5.4,0,0,0,3.79-1.35,11.14,11.14,0,0,0,2.56-3.6,63.62,63.62,0,0,0,2.3-6.15,82.8,82.8,0,0,1,3.62-8.9,16.12,16.12,0,0,1,5.2-6,15.39,15.39,0,0,1,9.09-2.49,15.61,15.61,0,0,1,14.24,8.83,22.71,22.71,0,0,1,2.26,10.55,27.44,27.44,0,0,1-2.08,10.92,18.73,18.73,0,0,1-6,7.76,17.63,17.63,0,0,1-9.22,3.34l-.54,0v-13l.44-.05a8.71,8.71,0,0,0,5.42-2.61,8.2,8.2,0,0,0,2.14-5.93A6.87,6.87,0,0,0,91,174.89a6.06,6.06,0,0,0-4.49-1.73,5.93,5.93,0,0,0-4,1.39,10.75,10.75,0,0,0-2.63,3.67c-.69,1.53-1.49,3.67-2.38,6.36A65.83,65.83,0,0,1,74,193.29a16.56,16.56,0,0,1-5.16,5.89A14.85,14.85,0,0,1,60,201.64Zm-.34-39.38A15.81,15.81,0,0,0,49,168.05c-2.79,3.44-4.21,8.14-4.21,14,0,5.61,1.38,10.18,4.09,13.57a13.51,13.51,0,0,0,11.09,5,13.86,13.86,0,0,0,8.27-2.27,15.61,15.61,0,0,0,4.85-5.54,63.22,63.22,0,0,0,3.45-8.57c.9-2.72,1.72-4.89,2.41-6.45a11.94,11.94,0,0,1,2.89-4,6.88,6.88,0,0,1,4.69-1.64,7.06,7.06,0,0,1,5.19,2,7.83,7.83,0,0,1,2,5.76,9.19,9.19,0,0,1-2.42,6.63,9.72,9.72,0,0,1-5.58,2.85v11a16.5,16.5,0,0,0,8.16-3.09A17.7,17.7,0,0,0,99.64,190a26.35,26.35,0,0,0,2-10.52,21.81,21.81,0,0,0-2.14-10.09,15.11,15.11,0,0,0-5.65-6.2h0a14.81,14.81,0,0,0-7.7-2.09,14.33,14.33,0,0,0-8.51,2.31A15.15,15.15,0,0,0,72.75,169a82.07,82.07,0,0,0-3.58,8.78A62.41,62.41,0,0,1,66.83,184,11.75,11.75,0,0,1,64,188a7.17,7.17,0,0,1-9.6-.49,8,8,0,0,1-1.76-5.36,8.45,8.45,0,0,1,2.1-6,8.83,8.83,0,0,1,4.86-2.64Z"/><path class="cls-2" d="M102.08,146.36H44.6V134.08h57.48Zm-56.48-1h55.48V135.08H45.6Z"/><path class="cls-2" d="M73.18,120.2A30.52,30.52,0,0,1,58,116.42a27.37,27.37,0,0,1-10.46-10.35,30.34,30.34,0,0,1,0-29.22h0A27.37,27.37,0,0,1,58,66.5a30.52,30.52,0,0,1,15.17-3.78,30.68,30.68,0,0,1,15.2,3.78A27.23,27.23,0,0,1,98.89,76.85a30.34,30.34,0,0,1,0,29.22,27.23,27.23,0,0,1-10.51,10.35A30.66,30.66,0,0,1,73.18,120.2ZM48.42,77.35a29.31,29.31,0,0,0,0,28.22,26.2,26.2,0,0,0,10.09,10,29.44,29.44,0,0,0,14.67,3.66,29.68,29.68,0,0,0,14.72-3.66,26.24,26.24,0,0,0,10.13-10,29.38,29.38,0,0,0,0-28.22,26.24,26.24,0,0,0-10.13-10,29.71,29.71,0,0,0-14.72-3.66,29.44,29.44,0,0,0-14.67,3.66,26.2,26.2,0,0,0-10.09,10Zm24.76,31.33a22.11,22.11,0,0,1-10-2.17,16,16,0,0,1-6.64-6.07,18.61,18.61,0,0,1,0-18,16,16,0,0,1,6.64-6.07,22.17,22.17,0,0,1,10-2.17,22.14,22.14,0,0,1,10,2.17,15.91,15.91,0,0,1,6.64,6.07,18.61,18.61,0,0,1,0,18,15.91,15.91,0,0,1-6.64,6.07A22.11,22.11,0,0,1,73.18,108.68Zm0-33.44a21,21,0,0,0-9.57,2.07A14.86,14.86,0,0,0,57.37,83a17.58,17.58,0,0,0,0,16.92h0a14.86,14.86,0,0,0,6.24,5.69,21.05,21.05,0,0,0,9.57,2.07,21.13,21.13,0,0,0,9.58-2.07A14.78,14.78,0,0,0,89,99.92,17.58,17.58,0,0,0,89,83a14.78,14.78,0,0,0-6.23-5.69A21,21,0,0,0,73.18,75.24Zm-30.65,23H33.76L23.64,78.88h9.78Zm-8.17-1H41l-8.17-17.4H25.29Z"/><path class="cls-2" d="M102.08,48.84H44.6V36.79L82.14,12.28H44.6V0h57.48V12.05L64.85,36.56h37.23Zm-56.48-1h55.48V37.56H61.51l39.57-26.05V1H45.6V11.28H85.5L45.6,37.33Z"/></g><path class="cls-2" d="M21.28,453.4H77.12v11.2h-39l39,14.32v9.76L38.32,503h38.8v11.28H21.28V500.6l42-17L21.28,467Z"/><path class="cls-2" d="M20.64,425.48H77.12v11.28H20.64Z"/><path class="cls-2" d="M69.64,372.2a15.49,15.49,0,0,1,5.84,6.4,22.17,22.17,0,0,1,2.2,10.32,26.79,26.79,0,0,1-2,10.72,18.08,18.08,0,0,1-5.88,7.56,17,17,0,0,1-9,3.24v-12a9.21,9.21,0,0,0,5.72-2.76,8.66,8.66,0,0,0,2.28-6.28,7.31,7.31,0,0,0-1.88-5.4,6.56,6.56,0,0,0-4.84-1.88,6.36,6.36,0,0,0-4.36,1.52A11,11,0,0,0,55,387.48q-1,2.32-2.4,6.4a62.42,62.42,0,0,1-3.48,8.64,15.94,15.94,0,0,1-5,5.72,14.36,14.36,0,0,1-8.56,2.36A13.93,13.93,0,0,1,24,405.36q-4.2-5.24-4.2-13.88,0-9,4.32-14.28a16.29,16.29,0,0,1,11.52-6v12.16a8.45,8.45,0,0,0-5,2.56,7.94,7.94,0,0,0-2,5.68,7.51,7.51,0,0,0,1.64,5,5.91,5.91,0,0,0,4.76,1.92A5.9,5.9,0,0,0,39.24,397a11.33,11.33,0,0,0,2.68-3.76,62,62,0,0,0,2.32-6.2,82.43,82.43,0,0,1,3.6-8.84,15.55,15.55,0,0,1,5-5.8,14.8,14.8,0,0,1,8.8-2.4A15.32,15.32,0,0,1,69.64,372.2Z"/><path class="cls-2" d="M20.64,344H77.12v11.28H20.64Z"/><path class="cls-2" d="M23.52,286.56A26.69,26.69,0,0,1,33.8,276.4a29.84,29.84,0,0,1,14.92-3.72,30.08,30.08,0,0,1,15,3.72A26.6,26.6,0,0,1,74,286.56a29.86,29.86,0,0,1,0,28.72,26.6,26.6,0,0,1-10.32,10.16,30.08,30.08,0,0,1-15,3.72,29.84,29.84,0,0,1-14.92-3.72,26.69,26.69,0,0,1-10.28-10.16,29.86,29.86,0,0,1,0-28.72Zm9,23.08a15.26,15.26,0,0,0,6.44,5.88,21.53,21.53,0,0,0,9.8,2.12,21.53,21.53,0,0,0,9.8-2.12A15.26,15.26,0,0,0,65,309.64a18.09,18.09,0,0,0,0-17.44,15.26,15.26,0,0,0-6.44-5.88,21.53,21.53,0,0,0-9.8-2.12,21.53,21.53,0,0,0-9.8,2.12,15.26,15.26,0,0,0-6.44,5.88,18.09,18.09,0,0,0,0,17.44ZM8.64,288.84l8.64,18.4H9.6L0,288.84Z"/><path class="cls-2" d="M77.12,210v11.28l-38.4,25.28h38.4V257.8H20.64V246.52l38.72-25.28H20.64V210Z"/></g></g></svg>