<svg xmlns="http://www.w3.org/2000/svg" viewBox="0 0 615.6 108.15"><defs><style>.cls-1{fill:#fff;}.cls-2{opacity:0.2;}</style></defs><title>Recurso 4</title><g id="Capa_2" data-name="Capa 2"><g id="Layer_1" data-name="Layer 1"><path class="cls-1" d="M53.9,12.5,45.25,47.8h-8.7L30,22.2,23.3,47.8H14.65L6,12.5h7.65l5.4,27.35,7-27.35H33.8l7.05,27.35,5.4-27.35Z"/><path class="cls-1" d="M88.22,14.3a16.63,16.63,0,0,1,6.36,6.42,18.67,18.67,0,0,1,2.32,9.33,18.79,18.79,0,0,1-2.32,9.35,16.57,16.57,0,0,1-6.36,6.45,18.64,18.64,0,0,1-17.94,0,16.57,16.57,0,0,1-6.36-6.45,18.9,18.9,0,0,1-2.32-9.35,18.77,18.77,0,0,1,2.32-9.33,16.63,16.63,0,0,1,6.36-6.42,18.64,18.64,0,0,1,17.94,0ZM73.8,19.9a9.49,9.49,0,0,0-3.67,4,13.37,13.37,0,0,0-1.33,6.13,13.33,13.33,0,0,0,1.33,6.12,9.52,9.52,0,0,0,3.67,4,11.31,11.31,0,0,0,10.9,0,9.6,9.6,0,0,0,3.68-4,13.46,13.46,0,0,0,1.32-6.12,13.5,13.5,0,0,0-1.32-6.13,9.58,9.58,0,0,0-3.68-4,11.31,11.31,0,0,0-10.9,0Z"/><path class="cls-1" d="M124.6,47.8l-8.25-13.75h-3.1V47.8h-7V12.5h13.45q6.15,0,9.38,3a10.31,10.31,0,0,1,3.22,7.9A10.19,10.19,0,0,1,130,30.1a11,11,0,0,1-6.43,3.6l8.8,14.1ZM113.25,29.2h5.8q6,0,6-5.35a5.27,5.27,0,0,0-1.47-4,6.35,6.35,0,0,0-4.58-1.43h-5.8Z"/><path class="cls-1" d="M148.05,42.4H159.9v5.4H141V12.5h7.05Z"/><path class="cls-1" d="M197,39.35a15.33,15.33,0,0,1-6.38,6.23,20.84,20.84,0,0,1-9.92,2.22H168.1V12.5h12.55a21.2,21.2,0,0,1,9.92,2.17A15.06,15.06,0,0,1,197,20.83a18.77,18.77,0,0,1,2.2,9.27A18.86,18.86,0,0,1,197,39.35Zm-8.08-.85q3.13-3,3.13-8.4t-3.13-8.45q-3.12-3-8.82-3h-4.9V41.5h4.9Q185.75,41.5,188.87,38.5Z"/><path class="cls-1" d="M247.35,12.5v5.6H237.6V47.8h-7V18.1h-9.7V12.5Z"/><path class="cls-1" d="M273.65,47.8,265.4,34.05h-3.1V47.8h-7.05V12.5H268.7q6.15,0,9.37,3a10.28,10.28,0,0,1,3.23,7.9,10.15,10.15,0,0,1-2.23,6.7,11,11,0,0,1-6.42,3.6l8.8,14.1ZM262.3,29.2h5.8q6,0,6-5.35a5.23,5.23,0,0,0-1.48-4,6.31,6.31,0,0,0-4.57-1.43h-5.8Z"/><path class="cls-1" d="M311.55,40.7H297.4l-2.5,7.1h-7.45l13-34.9h8.05l12.95,34.9H314Zm-1.9-5.35-5.2-14.9-5.2,14.9Z"/><path class="cls-1" d="M358.1,39.35a15.33,15.33,0,0,1-6.38,6.23,20.84,20.84,0,0,1-9.92,2.22H329.25V12.5H341.8a21.2,21.2,0,0,1,9.92,2.17,15.06,15.06,0,0,1,6.38,6.16,18.77,18.77,0,0,1,2.2,9.27A18.86,18.86,0,0,1,358.1,39.35ZM350,38.5q3.14-3,3.13-8.4T350,21.65q-3.12-3-8.82-3h-4.9V41.5h4.9Q346.9,41.5,350,38.5Z"/><path class="cls-1" d="M376.65,18.1v9.15h12.5v5.4h-12.5v9.5h14V47.8h-21V12.5h21v5.6Z"/><path class="cls-1" d="M441.65,15.55a16.12,16.12,0,0,1,5.75,9.25H440a9.69,9.69,0,0,0-3.58-4.5,10.09,10.09,0,0,0-5.82-1.65,9.2,9.2,0,0,0-8.55,5.4,13.84,13.84,0,0,0-1.25,6.1,13.71,13.71,0,0,0,1.25,6.05,9.2,9.2,0,0,0,8.55,5.4A10.09,10.09,0,0,0,436.42,40a9.69,9.69,0,0,0,3.58-4.5h7.4a16.12,16.12,0,0,1-5.75,9.25,19,19,0,0,1-19.88,1.13,15.59,15.59,0,0,1-6-6.38,20,20,0,0,1-2.12-9.3,20.09,20.09,0,0,1,2.12-9.35,15.61,15.61,0,0,1,6-6.38,19.08,19.08,0,0,1,19.9,1.13Z"/><path class="cls-1" d="M463.75,18.1v9.15h12.5v5.4h-12.5v9.5h14V47.8H456.7V12.5h21.05v5.6Z"/><path class="cls-1" d="M516.85,47.8H509.8L494,23.8v24H487V12.5H494l15.8,24.2V12.5h7.05Z"/><path class="cls-1" d="M551.25,12.5v5.6H541.5V47.8h-7V18.1h-9.7V12.5Z"/><path class="cls-1" d="M566.2,18.1v9.15h12.5v5.4H566.2v9.5h14V47.8H559.15V12.5H580.2v5.6Z"/><path class="cls-1" d="M607.8,47.8l-8.25-13.75h-3.1V47.8H589.4V12.5h13.45q6.15,0,9.37,3a10.28,10.28,0,0,1,3.23,7.9,10.15,10.15,0,0,1-2.23,6.7,11,11,0,0,1-6.42,3.6l8.8,14.1ZM596.45,29.2h5.8q6,0,6-5.35a5.27,5.27,0,0,0-1.48-4,6.32,6.32,0,0,0-4.57-1.43h-5.8Z"/><path class="cls-1" d="M74.63,75.55a16.12,16.12,0,0,1,5.75,9.25H73a9.69,9.69,0,0,0-3.58-4.5,10.11,10.11,0,0,0-5.82-1.65A9.2,9.2,0,0,0,55,84.05,15.39,15.39,0,0,0,55,96.2a9.2,9.2,0,0,0,8.55,5.4A10.11,10.11,0,0,0,69.4,100,9.69,9.69,0,0,0,73,95.45h7.4a16.12,16.12,0,0,1-5.75,9.25,17.22,17.22,0,0,1-10.95,3.4,17.36,17.36,0,0,1-8.93-2.27,15.59,15.59,0,0,1-6-6.38,21.57,21.57,0,0,1,0-18.65,15.61,15.61,0,0,1,6-6.38,17.31,17.31,0,0,1,9-2.27A17.22,17.22,0,0,1,74.63,75.55Z"/><path class="cls-1" d="M96.72,72.5v35.3h-7V72.5Z"/><path class="cls-1" d="M113.92,72.5V93.2q0,4.15,1.83,6.22a7.67,7.67,0,0,0,10.5,0q1.83-2.07,1.83-6.22V72.5h7V93.2a17.14,17.14,0,0,1-1.83,8.27,11.78,11.78,0,0,1-5.05,5,15.84,15.84,0,0,1-7.32,1.65q-6.36,0-10.16-3.8t-3.8-11.15V72.5Z"/><path class="cls-1" d="M174.13,99.35a15.39,15.39,0,0,1-6.38,6.23,20.84,20.84,0,0,1-9.92,2.22H145.28V72.5h12.55a21.2,21.2,0,0,1,9.92,2.17,15.12,15.12,0,0,1,6.38,6.16,20.59,20.59,0,0,1,0,18.52Zm-8.08-.85q3.12-3,3.12-8.4t-3.12-8.45q-3.12-3-8.82-3h-4.9V101.5h4.9Q162.93,101.5,166.05,98.5Z"/><path class="cls-1" d="M207.13,100.7H193l-2.5,7.1H183l13-34.9h8.06L217,107.8h-7.44Zm-1.91-5.35L200,80.45l-5.19,14.9Z"/><path class="cls-1" d="M253.67,99.35a15.31,15.31,0,0,1-6.37,6.23,20.84,20.84,0,0,1-9.92,2.22H224.83V72.5h12.55a21.2,21.2,0,0,1,9.92,2.17,15,15,0,0,1,6.37,6.16,20.5,20.5,0,0,1,0,18.52Zm-8.07-.85q3.12-3,3.12-8.4t-3.12-8.45q-3.12-3-8.82-3h-4.9V101.5h4.9Q242.48,101.5,245.6,98.5Z"/><path class="cls-1" d="M308.92,99.35a15.31,15.31,0,0,1-6.37,6.23,20.86,20.86,0,0,1-9.93,2.22H280.07V72.5h12.55a21.21,21.21,0,0,1,9.93,2.17,15,15,0,0,1,6.37,6.16,20.59,20.59,0,0,1,0,18.52Zm-8.07-.85q3.12-3,3.12-8.4t-3.12-8.45c-2.08-2-5-3-8.83-3h-4.9V101.5H292C295.82,101.5,298.77,100.5,300.85,98.5Z"/><path class="cls-1" d="M327.47,78.1v9.15H340v5.4h-12.5v9.5h14v5.65H320.42V72.5h21.05v5.6Z"/><path class="cls-1" d="M403.62,72.9v34.9h-7V83.45l-8.95,24.35h-6.1l-8.95-24.25V107.8h-7.05V72.9h8.55l10.6,26.25,10.4-26.25Z"/><path class="cls-1" d="M421.07,78.1v9.15h12.5v5.4h-12.5v9.5h14v5.65H414V72.5h21.05v5.6ZM432.12,65l-11.5,5.4V65.6l11.5-6Z"/><path class="cls-1" d="M465,107.8l-7.95-12-7.05,12h-8l11.1-18L441.67,72.5H450l7.8,11.8,6.95-11.8h8.05L461.77,90.25l11.6,17.55Z"/><path class="cls-1" d="M488.22,72.5v35.3h-7.05V72.5Z"/><path class="cls-1" d="M525.52,75.55a16.07,16.07,0,0,1,5.75,9.25h-7.4a9.74,9.74,0,0,0-3.57-4.5,10.12,10.12,0,0,0-5.83-1.65,9.2,9.2,0,0,0-8.55,5.4,15.39,15.39,0,0,0,0,12.15,9.2,9.2,0,0,0,8.55,5.4A10.12,10.12,0,0,0,520.3,100a9.74,9.74,0,0,0,3.57-4.5h7.4a16.07,16.07,0,0,1-5.75,9.25,19,19,0,0,1-19.87,1.13,15.46,15.46,0,0,1-6-6.38,21.48,21.48,0,0,1,0-18.65,15.52,15.52,0,0,1,6-6.38,19.08,19.08,0,0,1,19.9,1.13Z"/><path class="cls-1" d="M566.1,74.3a16.67,16.67,0,0,1,6.35,6.42,20,20,0,0,1,0,18.68,16.61,16.61,0,0,1-6.35,6.45,18.66,18.66,0,0,1-18,0,16.55,16.55,0,0,1-6.35-6.45,19.89,19.89,0,0,1,0-18.68,16.6,16.6,0,0,1,6.35-6.42,18.66,18.66,0,0,1,18,0Zm-14.43,5.6a9.49,9.49,0,0,0-3.67,4,14.77,14.77,0,0,0,0,12.25,9.52,9.52,0,0,0,3.67,4,11.31,11.31,0,0,0,10.9,0,9.6,9.6,0,0,0,3.68-4,14.87,14.87,0,0,0,0-12.25,9.58,9.58,0,0,0-3.68-4,11.31,11.31,0,0,0-10.9,0Z"/><g class="cls-2"><path class="cls-1" d="M47.9.5,39.25,35.8h-8.7L24,10.2,17.3,35.8H8.65L0,.5H7.65l5.4,27.35L20.05.5H27.8l7.05,27.35L40.25.5Z"/><path class="cls-1" d="M82.22,2.3a16.63,16.63,0,0,1,6.36,6.42,18.67,18.67,0,0,1,2.32,9.33,18.79,18.79,0,0,1-2.32,9.35,16.57,16.57,0,0,1-6.36,6.45,18.64,18.64,0,0,1-17.94,0,16.57,16.57,0,0,1-6.36-6.45,18.9,18.9,0,0,1-2.32-9.35,18.77,18.77,0,0,1,2.32-9.33A16.63,16.63,0,0,1,64.28,2.3a18.64,18.64,0,0,1,17.94,0ZM67.8,7.9a9.49,9.49,0,0,0-3.67,4,13.37,13.37,0,0,0-1.33,6.13,13.33,13.33,0,0,0,1.33,6.12,9.52,9.52,0,0,0,3.67,4,11.31,11.31,0,0,0,10.9,0,9.6,9.6,0,0,0,3.68-4,13.46,13.46,0,0,0,1.32-6.12,13.5,13.5,0,0,0-1.32-6.13,9.58,9.58,0,0,0-3.68-4,11.31,11.31,0,0,0-10.9,0Z"/><path class="cls-1" d="M118.6,35.8l-8.25-13.75h-3.1V35.8h-7V.5h13.45q6.15,0,9.38,3a10.31,10.31,0,0,1,3.22,7.9A10.19,10.19,0,0,1,124,18.1a11,11,0,0,1-6.43,3.6l8.8,14.1ZM107.25,17.2h5.8q6,0,6-5.35a5.27,5.27,0,0,0-1.47-4,6.35,6.35,0,0,0-4.58-1.43h-5.8Z"/><path class="cls-1" d="M142.05,30.4H153.9v5.4H135V.5h7.05Z"/><path class="cls-1" d="M191,27.35a15.33,15.33,0,0,1-6.38,6.23,20.84,20.84,0,0,1-9.92,2.22H162.1V.5h12.55a21.2,21.2,0,0,1,9.92,2.17A15.06,15.06,0,0,1,191,8.83a18.77,18.77,0,0,1,2.2,9.27A18.86,18.86,0,0,1,191,27.35Zm-8.08-.85q3.13-3,3.13-8.4t-3.13-8.45q-3.12-3-8.82-3h-4.9V29.5h4.9Q179.75,29.5,182.87,26.5Z"/><path class="cls-1" d="M241.35.5V6.1H231.6V35.8h-7V6.1h-9.7V.5Z"/><path class="cls-1" d="M267.65,35.8,259.4,22.05h-3.1V35.8h-7.05V.5H262.7q6.15,0,9.37,3a10.28,10.28,0,0,1,3.23,7.9,10.15,10.15,0,0,1-2.23,6.7,11,11,0,0,1-6.42,3.6l8.8,14.1ZM256.3,17.2h5.8q6,0,6-5.35a5.23,5.23,0,0,0-1.48-4,6.31,6.31,0,0,0-4.57-1.43h-5.8Z"/><path class="cls-1" d="M305.55,28.7H291.4l-2.5,7.1h-7.45l13-34.9h8.05l12.95,34.9H308Zm-1.9-5.35-5.2-14.9-5.2,14.9Z"/><path class="cls-1" d="M352.1,27.35a15.33,15.33,0,0,1-6.38,6.23,20.84,20.84,0,0,1-9.92,2.22H323.25V.5H335.8a21.2,21.2,0,0,1,9.92,2.17,15.06,15.06,0,0,1,6.38,6.16,18.77,18.77,0,0,1,2.2,9.27A18.86,18.86,0,0,1,352.1,27.35ZM344,26.5q3.14-3,3.13-8.4T344,9.65q-3.12-3-8.82-3h-4.9V29.5h4.9Q340.9,29.5,344,26.5Z"/><path class="cls-1" d="M370.65,6.1v9.15h12.5v5.4h-12.5v9.5h14V35.8h-21V.5h21V6.1Z"/><path class="cls-1" d="M435.65,3.55a16.12,16.12,0,0,1,5.75,9.25H434a9.69,9.69,0,0,0-3.58-4.5,10.09,10.09,0,0,0-5.82-1.65,9.2,9.2,0,0,0-8.55,5.4,13.84,13.84,0,0,0-1.25,6.1,13.71,13.71,0,0,0,1.25,6.05,9.2,9.2,0,0,0,8.55,5.4A10.09,10.09,0,0,0,430.42,28a9.69,9.69,0,0,0,3.58-4.5h7.4a16.12,16.12,0,0,1-5.75,9.25,19,19,0,0,1-19.88,1.13,15.59,15.59,0,0,1-6-6.38,20,20,0,0,1-2.12-9.3,20.09,20.09,0,0,1,2.12-9.35,15.61,15.61,0,0,1,6-6.38,19.08,19.08,0,0,1,19.9,1.13Z"/><path class="cls-1" d="M457.75,6.1v9.15h12.5v5.4h-12.5v9.5h14V35.8H450.7V.5h21.05V6.1Z"/><path class="cls-1" d="M510.85,35.8H503.8L488,11.8v24H481V.5H488l15.8,24.2V.5h7.05Z"/><path class="cls-1" d="M545.25.5V6.1H535.5V35.8h-7V6.1h-9.7V.5Z"/><path class="cls-1" d="M560.2,6.1v9.15h12.5v5.4H560.2v9.5h14V35.8H553.15V.5H574.2V6.1Z"/><path class="cls-1" d="M601.8,35.8l-8.25-13.75h-3.1V35.8H583.4V.5h13.45q6.15,0,9.37,3a10.28,10.28,0,0,1,3.23,7.9,10.15,10.15,0,0,1-2.23,6.7,11,11,0,0,1-6.42,3.6l8.8,14.1ZM590.45,17.2h5.8q6,0,6-5.35a5.27,5.27,0,0,0-1.48-4,6.32,6.32,0,0,0-4.57-1.43h-5.8Z"/><path class="cls-1" d="M68.63,63.55a16.12,16.12,0,0,1,5.75,9.25H67a9.69,9.69,0,0,0-3.58-4.5,10.11,10.11,0,0,0-5.82-1.65A9.2,9.2,0,0,0,49,72.05,15.39,15.39,0,0,0,49,84.2a9.2,9.2,0,0,0,8.55,5.4A10.11,10.11,0,0,0,63.4,88,9.69,9.69,0,0,0,67,83.45h7.4a16.12,16.12,0,0,1-5.75,9.25,17.22,17.22,0,0,1-10.95,3.4,17.36,17.36,0,0,1-8.93-2.27,15.59,15.59,0,0,1-6-6.38,21.57,21.57,0,0,1,0-18.65,15.61,15.61,0,0,1,6-6.38,17.31,17.31,0,0,1,9-2.27A17.22,17.22,0,0,1,68.63,63.55Z"/><path class="cls-1" d="M90.72,60.5V95.8h-7V60.5Z"/><path class="cls-1" d="M107.92,60.5V81.2q0,4.15,1.83,6.22a7.67,7.67,0,0,0,10.5,0q1.83-2.07,1.83-6.22V60.5h7V81.2a17.14,17.14,0,0,1-1.83,8.27,11.78,11.78,0,0,1-5,5,15.84,15.84,0,0,1-7.32,1.65q-6.36,0-10.16-3.8t-3.8-11.15V60.5Z"/><path class="cls-1" d="M168.13,87.35a15.39,15.39,0,0,1-6.38,6.23,20.84,20.84,0,0,1-9.92,2.22H139.28V60.5h12.55a21.2,21.2,0,0,1,9.92,2.17,15.12,15.12,0,0,1,6.38,6.16,18.88,18.88,0,0,1,2.2,9.27A19,19,0,0,1,168.13,87.35Zm-8.08-.85q3.12-3,3.12-8.4t-3.12-8.45q-3.12-3-8.82-3h-4.9V89.5h4.9Q156.93,89.5,160.05,86.5Z"/><path class="cls-1" d="M201.13,88.7H187l-2.5,7.1H177l13-34.9h8.06L211,95.8h-7.44Zm-1.91-5.35L194,68.45l-5.19,14.9Z"/><path class="cls-1" d="M247.67,87.35a15.31,15.31,0,0,1-6.37,6.23,20.84,20.84,0,0,1-9.92,2.22H218.83V60.5h12.55a21.2,21.2,0,0,1,9.92,2.17,15,15,0,0,1,6.37,6.16,18.78,18.78,0,0,1,2.21,9.27A18.86,18.86,0,0,1,247.67,87.35Zm-8.07-.85q3.12-3,3.12-8.4t-3.12-8.45q-3.12-3-8.82-3h-4.9V89.5h4.9Q236.48,89.5,239.6,86.5Z"/><path class="cls-1" d="M302.92,87.35a15.31,15.31,0,0,1-6.37,6.23,20.86,20.86,0,0,1-9.93,2.22H274.07V60.5h12.55a21.21,21.21,0,0,1,9.93,2.17,15,15,0,0,1,6.37,6.16,18.77,18.77,0,0,1,2.2,9.27A18.86,18.86,0,0,1,302.92,87.35Zm-8.07-.85q3.12-3,3.12-8.4t-3.12-8.45c-2.08-2-5-3-8.83-3h-4.9V89.5H286C289.82,89.5,292.77,88.5,294.85,86.5Z"/><path class="cls-1" d="M321.47,66.1v9.15H334v5.4h-12.5v9.5h14V95.8H314.42V60.5h21.05v5.6Z"/><path class="cls-1" d="M397.62,60.9V95.8h-7V71.45L381.67,95.8h-6.1l-8.95-24.25V95.8h-7.05V60.9h8.55l10.6,26.25,10.4-26.25Z"/><path class="cls-1" d="M415.07,66.1v9.15h12.5v5.4h-12.5v9.5h14V95.8H408V60.5h21.05v5.6ZM426.12,53l-11.5,5.4V53.6l11.5-6Z"/><path class="cls-1" d="M459,95.8l-7.95-12L444,95.8h-8l11.1-18L435.67,60.5H444l7.8,11.8,6.95-11.8h8.05L455.77,78.25l11.6,17.55Z"/><path class="cls-1" d="M482.22,60.5V95.8h-7.05V60.5Z"/><path class="cls-1" d="M519.52,63.55a16.07,16.07,0,0,1,5.75,9.25h-7.4a9.74,9.74,0,0,0-3.57-4.5,10.12,10.12,0,0,0-5.83-1.65,9.2,9.2,0,0,0-8.55,5.4,15.39,15.39,0,0,0,0,12.15,9.2,9.2,0,0,0,8.55,5.4A10.12,10.12,0,0,0,514.3,88a9.74,9.74,0,0,0,3.57-4.5h7.4a16.07,16.07,0,0,1-5.75,9.25,19,19,0,0,1-19.87,1.13,15.46,15.46,0,0,1-6-6.38,21.48,21.48,0,0,1,0-18.65,15.52,15.52,0,0,1,6-6.38,19.08,19.08,0,0,1,19.9,1.13Z"/><path class="cls-1" d="M560.1,62.3a16.67,16.67,0,0,1,6.35,6.42,20,20,0,0,1,0,18.68,16.61,16.61,0,0,1-6.35,6.45,18.66,18.66,0,0,1-18,0,16.55,16.55,0,0,1-6.35-6.45,19.89,19.89,0,0,1,0-18.68,16.6,16.6,0,0,1,6.35-6.42,18.66,18.66,0,0,1,18,0Zm-14.43,5.6a9.49,9.49,0,0,0-3.67,4,14.77,14.77,0,0,0,0,12.25,9.52,9.52,0,0,0,3.67,4,11.31,11.31,0,0,0,10.9,0,9.6,9.6,0,0,0,3.68-4,14.87,14.87,0,0,0,0-12.25,9.58,9.58,0,0,0-3.68-4,11.31,11.31,0,0,0-10.9,0Z"/></g></g></g></svg>