<svg xmlns="http://www.w3.org/2000/svg" viewBox="0 0 87.34 472.18"><defs><style>.cls-1{fill:#fff;}.cls-2{opacity:0.2;}.cls-3{fill:none;stroke:#fff;stroke-miterlimit:10;}</style></defs><title>Recurso 11</title><g id="Capa_2" data-name="Capa 2"><g id="Layer_1" data-name="Layer 1"><path class="cls-1" d="M30.3,227.28h9v15.6H86.78v11.28H39.26v15.52h-9Z"/><path class="cls-1" d="M33.18,173.8a26.63,26.63,0,0,1,10.28-10.16,29.84,29.84,0,0,1,14.92-3.72,30.08,30.08,0,0,1,15,3.72A26.53,26.53,0,0,1,83.66,173.8a29.86,29.86,0,0,1,0,28.72,26.6,26.6,0,0,1-10.32,10.16,30.08,30.08,0,0,1-15,3.72,29.84,29.84,0,0,1-14.92-3.72,26.69,26.69,0,0,1-10.28-10.16,29.86,29.86,0,0,1,0-28.72Zm9,23.08a15.39,15.39,0,0,0,6.44,5.88,21.53,21.53,0,0,0,9.8,2.12,21.53,21.53,0,0,0,9.8-2.12,15.39,15.39,0,0,0,6.44-5.88,18.09,18.09,0,0,0,0-17.44,15.26,15.26,0,0,0-6.44-5.88,21.4,21.4,0,0,0-9.8-2.12,21.4,21.4,0,0,0-9.8,2.12,15.26,15.26,0,0,0-6.44,5.88,18.09,18.09,0,0,0,0,17.44Z"/><path class="cls-1" d="M86.78,115.6l-22,13.2v5h22V145H30.3V123.52q0-9.84,4.8-15t12.64-5.16a16.31,16.31,0,0,1,10.72,3.56q4.32,3.56,5.76,10.28l22.56-14.08ZM57,133.76v-9.28q0-9.67-8.56-9.68a8.44,8.44,0,0,0-6.36,2.36q-2.28,2.36-2.28,7.32v9.28Z"/><path class="cls-1" d="M86.78,59.92l-22,13.2v5h22V89.36H30.3V67.84q0-9.84,4.8-15t12.64-5.16a16.31,16.31,0,0,1,10.72,3.56q4.32,3.56,5.76,10.28L86.78,47.44ZM57,78.08V68.8q0-9.67-8.56-9.68a8.44,8.44,0,0,0-6.36,2.36q-2.28,2.35-2.28,7.32v9.28Z"/><path class="cls-1" d="M39.26,22.4H53.9V2.4h8.64v20h15.2V0h9V33.68H30.3V0h9Z"/><g class="cls-2"><path class="cls-3" d="M1.3,429.28h9v15.6H57.78v11.28H10.26v15.52h-9Z"/><path class="cls-3" d="M4.18,375.8a26.63,26.63,0,0,1,10.28-10.16,29.84,29.84,0,0,1,14.92-3.72,30.08,30.08,0,0,1,15,3.72A26.53,26.53,0,0,1,54.66,375.8a29.86,29.86,0,0,1,0,28.72,26.6,26.6,0,0,1-10.32,10.16,30.08,30.08,0,0,1-15,3.72,29.84,29.84,0,0,1-14.92-3.72A26.69,26.69,0,0,1,4.18,404.52a29.86,29.86,0,0,1,0-28.72Zm9,23.08a15.39,15.39,0,0,0,6.44,5.88,21.53,21.53,0,0,0,9.8,2.12,21.53,21.53,0,0,0,9.8-2.12,15.39,15.39,0,0,0,6.44-5.88,18.09,18.09,0,0,0,0-17.44,15.26,15.26,0,0,0-6.44-5.88,21.4,21.4,0,0,0-9.8-2.12,21.4,21.4,0,0,0-9.8,2.12,15.26,15.26,0,0,0-6.44,5.88,18.09,18.09,0,0,0,0,17.44Z"/><path class="cls-3" d="M57.78,317.6l-22,13.2v5h22V347H1.3V325.52q0-9.84,4.8-15t12.64-5.16a16.31,16.31,0,0,1,10.72,3.56q4.32,3.56,5.76,10.28l22.56-14.08ZM28,335.76v-9.28q0-9.68-8.56-9.68a8.44,8.44,0,0,0-6.36,2.36q-2.28,2.35-2.28,7.32v9.28Z"/><path class="cls-3" d="M57.78,261.92l-22,13.2v5h22v11.28H1.3V269.84q0-9.84,4.8-15t12.64-5.16a16.31,16.31,0,0,1,10.72,3.56q4.32,3.56,5.76,10.28l22.56-14.08ZM28,280.08V270.8q0-9.68-8.56-9.68a8.44,8.44,0,0,0-6.36,2.36q-2.28,2.36-2.28,7.32v9.28Z"/><path class="cls-3" d="M10.26,224.4H24.9v-20h8.64v20h15.2V202h9v33.68H1.3V202h9Z"/></g></g></g></svg>