<svg xmlns="http://www.w3.org/2000/svg" viewBox="0 0 103.5 378.46"><defs><style>.cls-1{fill:#fff;}.cls-2{opacity:0.2;}.cls-3{fill:none;stroke:#fff;stroke-miterlimit:10;}</style></defs><title>Recurso 8</title><g id="Capa_2" data-name="Capa 2"><g id="Layer_1" data-name="Layer 1"><path class="cls-1" d="M.67,313.12l37.5-12.68L.67,287.7V277.57L48,294.34v12.14L.67,323.25Z"/><path class="cls-1" d="M38.5,238.26v19L48,260.6v10L1.21,253.16v-10.8L48,225v10Zm-7.17,2.55-20,7,20,7Z"/><path class="cls-1" d="M40.78,205.06v-15.9H48v25.36H.67v-9.46Z"/><path class="cls-1" d="M3.09,143.92a22.34,22.34,0,0,1,8.62-8.52,25,25,0,0,1,12.51-3.12,25.2,25.2,0,0,1,12.54,3.12,22.28,22.28,0,0,1,8.65,8.52,25,25,0,0,1,0,24.08,22.28,22.28,0,0,1-8.65,8.52,25.2,25.2,0,0,1-12.54,3.12,25,25,0,0,1-12.51-3.12A22.34,22.34,0,0,1,3.09,168a25,25,0,0,1,0-24.08Zm7.51,19.35A12.8,12.8,0,0,0,16,168.2,18,18,0,0,0,24.22,170a17.92,17.92,0,0,0,8.21-1.78,12.8,12.8,0,0,0,5.4-4.93,15.15,15.15,0,0,0,0-14.62,12.8,12.8,0,0,0-5.4-4.93,17.92,17.92,0,0,0-8.21-1.78A18,18,0,0,0,16,143.72a12.8,12.8,0,0,0-5.4,4.93,15.15,15.15,0,0,0,0,14.62Z"/><path class="cls-1" d="M48,95.12,29.58,106.19v4.16H48v9.45H.67v-18q0-8.25,4-12.58a13.79,13.79,0,0,1,10.59-4.32,13.65,13.65,0,0,1,9,3,14.67,14.67,0,0,1,4.83,8.62L48,84.65Zm-25,15.23v-7.78q0-8.13-7.18-8.12a7.05,7.05,0,0,0-5.33,2c-1.28,1.32-1.92,3.36-1.92,6.14v7.78Z"/><path class="cls-1" d="M8.18,63.66H20.46V46.89H27.7V63.66H40.45V44.88H48V73.12H.67V44.88H8.18Z"/><path class="cls-1" d="M41.76,1.81a13.05,13.05,0,0,1,4.89,5.37,18.58,18.58,0,0,1,1.85,8.65,22.49,22.49,0,0,1-1.71,9,15.26,15.26,0,0,1-4.93,6.34,14.27,14.27,0,0,1-7.52,2.72V23.81a7.64,7.64,0,0,0,4.8-2.31,7.25,7.25,0,0,0,1.91-5.27,6.12,6.12,0,0,0-1.57-4.52,5.47,5.47,0,0,0-4.06-1.58,5.31,5.31,0,0,0-3.66,1.27,9.36,9.36,0,0,0-2.31,3.22q-.87,2-2,5.37a53.57,53.57,0,0,1-2.92,7.24A13.41,13.41,0,0,1,20.33,32a12,12,0,0,1-7.18,2,11.7,11.7,0,0,1-9.63-4.39Q0,25.23,0,18,0,10.47,3.62,6A13.69,13.69,0,0,1,13.28.94v10.2a7.07,7.07,0,0,0-4.19,2.14A6.65,6.65,0,0,0,7.45,18a6.31,6.31,0,0,0,1.37,4.23,5,5,0,0,0,4,1.61,5,5,0,0,0,3.46-1.24,9.59,9.59,0,0,0,2.24-3.15,51.25,51.25,0,0,0,1.95-5.2,68.2,68.2,0,0,1,3-7.41A13.14,13.14,0,0,1,27.7,2a12.44,12.44,0,0,1,7.38-2A12.84,12.84,0,0,1,41.76,1.81Z"/><g class="cls-2"><path class="cls-3" d="M55.17,367.62,92.67,355,55.17,342.2V332.07l47.36,16.77V361L55.17,377.75Z"/><path class="cls-3" d="M93,292.77v19l9.52,3.35v10L55.71,307.66v-10.8l46.82-17.38v10Zm-7.18,2.54-20,7,20,7Z"/><path class="cls-3" d="M95.29,259.56v-15.9h7.24V269H55.17v-9.46Z"/><path class="cls-3" d="M57.59,198.42a22.34,22.34,0,0,1,8.62-8.52,25,25,0,0,1,12.51-3.12,25.2,25.2,0,0,1,12.54,3.12,22.28,22.28,0,0,1,8.65,8.52,25,25,0,0,1,0,24.08A22.28,22.28,0,0,1,91.26,231a25.2,25.2,0,0,1-12.54,3.12A25,25,0,0,1,66.21,231a22.34,22.34,0,0,1-8.62-8.52,25,25,0,0,1,0-24.08Zm7.51,19.35a12.74,12.74,0,0,0,5.4,4.93,18,18,0,0,0,8.22,1.78,18,18,0,0,0,8.22-1.78,12.77,12.77,0,0,0,5.39-4.93,15.15,15.15,0,0,0,0-14.62,12.83,12.83,0,0,0-5.39-4.93,18,18,0,0,0-8.22-1.78,18,18,0,0,0-8.22,1.78,12.8,12.8,0,0,0-5.4,4.93,15.15,15.15,0,0,0,0,14.62Z"/><path class="cls-3" d="M102.53,149.62,84.08,160.69v4.16h18.45v9.46H55.17V156.26q0-8.25,4-12.58a13.79,13.79,0,0,1,10.6-4.32,13.64,13.64,0,0,1,9,3A14.7,14.7,0,0,1,83.61,151l18.92-11.8Zm-25,15.23v-7.78q0-8.12-7.18-8.12a7.05,7.05,0,0,0-5.33,2c-1.28,1.32-1.91,3.36-1.91,6.14v7.78Z"/><path class="cls-3" d="M62.69,118.16H75V101.39h7.25v16.77H95V99.38h7.58v28.24H55.17V99.38h7.52Z"/><path class="cls-3" d="M96.26,56.31a13.08,13.08,0,0,1,4.9,5.37A18.59,18.59,0,0,1,103,70.33a22.45,22.45,0,0,1-1.71,9,15.18,15.18,0,0,1-4.93,6.34,14.27,14.27,0,0,1-7.51,2.72V78.32A7.7,7.7,0,0,0,93.64,76a7.22,7.22,0,0,0,1.91-5.26A6.13,6.13,0,0,0,94,66.21a5.51,5.51,0,0,0-4.06-1.58,5.38,5.38,0,0,0-3.66,1.27A9.36,9.36,0,0,0,84,69.12q-.87,1.95-2,5.37A54.31,54.31,0,0,1,79,81.74a13.46,13.46,0,0,1-4.19,4.79,12,12,0,0,1-7.18,2A11.68,11.68,0,0,1,58,84.12q-3.51-4.4-3.52-11.64,0-7.51,3.62-12a13.67,13.67,0,0,1,9.66-5.07v10.2a7.1,7.1,0,0,0-4.19,2.14A6.71,6.71,0,0,0,62,72.55a6.3,6.3,0,0,0,1.37,4.22,5.61,5.61,0,0,0,7.45.37A9.47,9.47,0,0,0,73,74,51.58,51.58,0,0,0,75,68.79a68.2,68.2,0,0,1,3-7.41,13.15,13.15,0,0,1,4.23-4.87,12.39,12.39,0,0,1,7.37-2A12.93,12.93,0,0,1,96.26,56.31Z"/></g></g></g></svg>