<svg xmlns="http://www.w3.org/2000/svg" viewBox="0 0 293.76 77.68"><defs><style>.cls-1{fill:#fff;}</style></defs><title>Recurso 6</title><g id="Capa_2" data-name="Capa 2"><g id="Layer_1" data-name="Layer 1"><path class="cls-1" d="M12.08,20.64,27.2,65.36,42.4,20.64H54.48l-20,56.48H20L0,20.64Z"/><path class="cls-1" d="M78.24,20.64V77.12H67V20.64Z"/><path class="cls-1" d="M131.52,69.64a15.56,15.56,0,0,1-6.4,5.84,22.17,22.17,0,0,1-10.32,2.2,26.76,26.76,0,0,1-10.72-2,18.08,18.08,0,0,1-7.56-5.88,16.86,16.86,0,0,1-3.24-9h12A9.11,9.11,0,0,0,108,66.52a8.64,8.64,0,0,0,6.28,2.28,7.34,7.34,0,0,0,5.4-1.88,6.56,6.56,0,0,0,1.88-4.84,6.36,6.36,0,0,0-1.52-4.36A11.13,11.13,0,0,0,116.24,55q-2.33-1-6.4-2.4a62.42,62.42,0,0,1-8.64-3.48,15.94,15.94,0,0,1-5.72-5,14.29,14.29,0,0,1-2.36-8.56A13.9,13.9,0,0,1,98.36,24q5.24-4.2,13.88-4.2,9,0,14.28,4.32a16.33,16.33,0,0,1,6,11.52H120.4a8.51,8.51,0,0,0-2.56-5,7.94,7.94,0,0,0-5.68-2,7.51,7.51,0,0,0-5,1.64,5.91,5.91,0,0,0-1.92,4.76,5.9,5.9,0,0,0,1.48,4.12,11.23,11.23,0,0,0,3.76,2.68,61.09,61.09,0,0,0,6.2,2.32,83.3,83.3,0,0,1,8.84,3.6,15.63,15.63,0,0,1,5.8,5,14.8,14.8,0,0,1,2.4,8.8A15.32,15.32,0,0,1,131.52,69.64Z"/><path class="cls-1" d="M159.68,20.64V77.12H148.4V20.64Z"/><path class="cls-1" d="M217.16,23.52A26.69,26.69,0,0,1,227.32,33.8,29.84,29.84,0,0,1,231,48.72a30.08,30.08,0,0,1-3.72,15A26.6,26.6,0,0,1,217.16,74a29.86,29.86,0,0,1-28.72,0,26.53,26.53,0,0,1-10.16-10.32,30.08,30.08,0,0,1-3.72-15,29.84,29.84,0,0,1,3.72-14.92,26.63,26.63,0,0,1,10.16-10.28,29.86,29.86,0,0,1,28.72,0Zm-23.08,9a15.26,15.26,0,0,0-5.88,6.44,21.4,21.4,0,0,0-2.12,9.8,21.4,21.4,0,0,0,2.12,9.8A15.26,15.26,0,0,0,194.08,65a18.09,18.09,0,0,0,17.44,0,15.39,15.39,0,0,0,5.88-6.44,21.53,21.53,0,0,0,2.12-9.8,21.53,21.53,0,0,0-2.12-9.8,15.39,15.39,0,0,0-5.88-6.44,18.09,18.09,0,0,0-17.44,0Zm20.8-23.84-18.4,8.64V9.6L214.88,0Z"/><path class="cls-1" d="M293.76,77.12H282.48L257.2,38.72v38.4H245.92V20.64H257.2l25.28,38.72V20.64h11.28Z"/></g></g></svg>